<svg xmlns="http://www.w3.org/2000/svg"  width="1306" height="1600" >
<rect x="459" y="20" width="3056" height="540" style="fill:lightblue;stroke:lightblue;" />
 <line x1="120" y1="20" x2="120" y2="560" style="stroke:black;stroke-width:1" />
  <text x="120" y="15" style="color:black;font-size :15;font-family = monospace;" >Asap Score</text>
  <text x="70" y="20" style="color:black;font-size :15;font-family = monospace;" >1.0</text>
 <line x1="110" y1="20" x2="120" y2="20" style="stroke:black;stroke-width:1" />
  <text x="70" y="73" style="color:black;font-size :15;font-family = monospace;" >5.7</text>
 <line x1="110" y1="73" x2="120" y2="73" style="stroke:black;stroke-width:1" />
  <text x="70" y="127" style="color:black;font-size :15;font-family = monospace;" >10.4</text>
 <line x1="110" y1="127" x2="120" y2="127" style="stroke:black;stroke-width:1" />
  <text x="70" y="181" style="color:black;font-size :15;font-family = monospace;" >15.1</text>
 <line x1="110" y1="181" x2="120" y2="181" style="stroke:black;stroke-width:1" />
  <text x="70" y="235" style="color:black;font-size :15;font-family = monospace;" >19.8</text>
 <line x1="110" y1="235" x2="120" y2="235" style="stroke:black;stroke-width:1" />
  <text x="70" y="290" style="color:black;font-size :15;font-family = monospace;" >24.5</text>
 <line x1="110" y1="290" x2="120" y2="290" style="stroke:black;stroke-width:1" />
  <text x="70" y="343" style="color:black;font-size :15;font-family = monospace;" >29.2</text>
 <line x1="110" y1="343" x2="120" y2="343" style="stroke:black;stroke-width:1" />
  <text x="70" y="397" style="color:black;font-size :15;font-family = monospace;" >33.9</text>
 <line x1="110" y1="397" x2="120" y2="397" style="stroke:black;stroke-width:1" />
  <text x="70" y="451" style="color:black;font-size :15;font-family = monospace;" >38.6</text>
 <line x1="110" y1="451" x2="120" y2="451" style="stroke:black;stroke-width:1" />
  <text x="70" y="505" style="color:black;font-size :15;font-family = monospace;" >43.3</text>
 <line x1="110" y1="505" x2="120" y2="505" style="stroke:black;stroke-width:1" />
  <text x="246" y="575" style="color:black;font-size :15;font-family = monospace;" >0.002</text>
 <line x1="246" y1="560" x2="246" y2="570" style="stroke:black;stroke-width:1" />
  <text x="372" y="575" style="color:black;font-size :15;font-family = monospace;" >0.004</text>
 <line x1="372" y1="560" x2="372" y2="570" style="stroke:black;stroke-width:1" />
  <text x="499" y="575" style="color:black;font-size :15;font-family = monospace;" >0.006</text>
 <line x1="499" y1="560" x2="499" y2="570" style="stroke:black;stroke-width:1" />
  <text x="625" y="575" style="color:black;font-size :15;font-family = monospace;" >0.007</text>
 <line x1="625" y1="560" x2="625" y2="570" style="stroke:black;stroke-width:1" />
  <text x="751" y="575" style="color:black;font-size :15;font-family = monospace;" >0.009</text>
 <line x1="751" y1="560" x2="751" y2="570" style="stroke:black;stroke-width:1" />
  <text x="878" y="575" style="color:black;font-size :15;font-family = monospace;" >0.011</text>
 <line x1="878" y1="560" x2="878" y2="570" style="stroke:black;stroke-width:1" />
  <text x="1004" y="575" style="color:black;font-size :15;font-family = monospace;" >0.013</text>
 <line x1="1004" y1="560" x2="1004" y2="570" style="stroke:black;stroke-width:1" />
 <line x1="120" y1="560" x2="1004" y2="560" style="stroke:black;stroke-width:1" />
  <text x="984" y="572" style="color:black;font-size :10;font-family = monospace;" >dist</text>
 <line x1="1299" y1="410" x2="1286" y2="410" style="stroke:black;stroke-width:1" />
 <line x1="1286" y1="410" x2="1260" y2="232" style="stroke:black;stroke-width:1" />
 <line x1="1260" y1="232" x2="1259" y2="244" style="stroke:black;stroke-width:1" />
 <line x1="1259" y1="244" x2="1251" y2="255" style="stroke:black;stroke-width:1" />
 <line x1="1251" y1="255" x2="1241" y2="278" style="stroke:black;stroke-width:1" />
 <line x1="1241" y1="278" x2="1199" y2="226" style="stroke:black;stroke-width:1" />
 <line x1="1199" y1="226" x2="735" y2="209" style="stroke:black;stroke-width:1" />
 <line x1="735" y1="209" x2="679" y2="209" style="stroke:black;stroke-width:1" />
 <line x1="679" y1="209" x2="622" y2="203" style="stroke:black;stroke-width:1" />
    <line   visibility="hidden"  id="bestline10"   x1="622" y1="203" x2="622" y2="1585" stroke="green" />
    <line   visibility="hidden"  id="bestlinejump10"    x1="460" y1="203" x2="460" y2="1585" stroke="red" stroke-dasharray="5, 10"/>
 <circle id="bestScore36" onmousemove="ShowTooltip(evt, 'inter/intra: 1.88e-04 Nb species: 11 / 11 [10 subsets] dist:0.007394')"   onmouseout="HideTooltip(evt)" onclick="circle_click(10);" cx="622" cy="203" r="7" style="fill:#FFFF00;stroke:black;" />
 <line x1="622" y1="203" x2="298" y2="215" style="stroke:black;stroke-width:1" />
 <line x1="298" y1="215" x2="244" y2="335" style="stroke:black;stroke-width:1" />
 <line x1="244" y1="335" x2="244" y2="335" style="stroke:black;stroke-width:1" />
 <line x1="244" y1="335" x2="212" y2="335" style="stroke:black;stroke-width:1" />
 <line x1="212" y1="335" x2="206" y2="203" style="stroke:black;stroke-width:1" />
    <line   visibility="hidden"  id="bestline9"   x1="206" y1="203" x2="206" y2="1585" stroke="green" />
    <line   visibility="hidden"  id="bestlinejump9"    x1="201" y1="203" x2="201" y2="1585" stroke="red" stroke-dasharray="5, 10"/>
 <circle id="bestScore31" onmousemove="ShowTooltip(evt, 'inter/intra: 6.19e-06 Nb species: 16 / 16 [15 subsets] dist:0.001275')"   onmouseout="HideTooltip(evt)" onclick="circle_click(9);" cx="206" cy="203" r="7" style="fill:#FFFF00;stroke:black;" />
 <line x1="206" y1="203" x2="196" y2="324" style="stroke:black;stroke-width:1" />
 <line x1="196" y1="324" x2="190" y2="335" style="stroke:black;stroke-width:1" />
 <line x1="190" y1="335" x2="189" y2="198" style="stroke:black;stroke-width:1" />
    <line   visibility="hidden"  id="bestline8"   x1="189" y1="198" x2="189" y2="1585" stroke="green" />
    <line   visibility="hidden"  id="bestlinejump8"    x1="187" y1="198" x2="187" y2="1585" stroke="red" stroke-dasharray="5, 10"/>
 <circle id="bestScore28" onmousemove="ShowTooltip(evt, 'inter/intra: 1.15e-05 Nb species: 19 / 19 [18 subsets] dist:0.001021')"   onmouseout="HideTooltip(evt)" onclick="circle_click(8);" cx="189" cy="198" r="7" style="fill:#FFFF00;stroke:black;" />
 <line x1="189" y1="198" x2="185" y2="175" style="stroke:black;stroke-width:1" />
    <line   visibility="hidden"  id="bestline5"   x1="185" y1="175" x2="185" y2="1585" stroke="green" />
    <line   visibility="hidden"  id="bestlinejump5"    x1="181" y1="175" x2="181" y2="1585" stroke="red" stroke-dasharray="5, 10"/>
 <circle id="bestScore27" onmousemove="ShowTooltip(evt, 'inter/intra: 1.36e-05 Nb species: 20 / 20 [19 subsets] dist:0.000966')"   onmouseout="HideTooltip(evt)" onclick="circle_click(5);" cx="185" cy="175" r="7" style="fill:#FFFF00;stroke:black;" />
 <line x1="185" y1="175" x2="178" y2="272" style="stroke:black;stroke-width:1" />
 <line x1="178" y1="272" x2="176" y2="94" style="stroke:black;stroke-width:1" />
    <line   visibility="hidden"  id="bestline2"   x1="176" y1="94" x2="176" y2="1585" stroke="green" />
    <line   visibility="hidden"  id="bestlinejump2"    x1="175" y1="94" x2="175" y2="1585" stroke="red" stroke-dasharray="5, 10"/>
 <circle id="bestScore25" onmousemove="ShowTooltip(evt, 'inter/intra: 2.24e-05 Nb species: 22 / 22 [21 subsets] dist:0.000833')"   onmouseout="HideTooltip(evt)" onclick="circle_click(2);" cx="176" cy="94" r="7" style="fill:#FFFF00;stroke:black;" />
 <line x1="176" y1="94" x2="174" y2="83" style="stroke:black;stroke-width:1" />
    <line   visibility="hidden"  id="bestline1"   x1="174" y1="83" x2="174" y2="1585" stroke="green" />
    <line   visibility="hidden"  id="bestlinejump1"    x1="164" y1="83" x2="164" y2="1585" stroke="red" stroke-dasharray="5, 10"/>
 <circle id="bestScore24" onmousemove="ShowTooltip(evt, 'inter/intra: 2.31e-05 Nb species: 23 / 23 [22 subsets] dist:0.000800')"   onmouseout="HideTooltip(evt)" onclick="circle_click(1);" cx="174" cy="83" r="7" style="fill:#FFFF00;stroke:black;" />
 <line x1="174" y1="83" x2="155" y2="163" style="stroke:black;stroke-width:1" />
    <line   visibility="hidden"  id="bestline4"   x1="155" y1="163" x2="155" y2="1585" stroke="green" />
    <line   visibility="hidden"  id="bestlinejump4"    x1="150" y1="163" x2="150" y2="1585" stroke="red" stroke-dasharray="5, 10"/>
 <circle id="bestScore23" onmousemove="ShowTooltip(evt, 'inter/intra: 1.44e-05 Nb species: 24 / 24 [23 subsets] dist:0.000519')"   onmouseout="HideTooltip(evt)" onclick="circle_click(4);" cx="155" cy="163" r="7" style="fill:#FFFF00;stroke:black;" />
 <line x1="155" y1="163" x2="146" y2="198" style="stroke:black;stroke-width:1" />
    <line   visibility="hidden"  id="bestline7"   x1="146" y1="198" x2="146" y2="1585" stroke="green" />
    <line   visibility="hidden"  id="bestlinejump7"    x1="144" y1="198" x2="144" y2="1585" stroke="red" stroke-dasharray="5, 10"/>
 <circle id="bestScore22" onmousemove="ShowTooltip(evt, 'inter/intra: 5.89e-06 Nb species: 25 / 25 [24 subsets] dist:0.000383')"   onmouseout="HideTooltip(evt)" onclick="circle_click(7);" cx="146" cy="198" r="7" style="fill:#F00000;stroke:black;" />
 <line x1="146" y1="198" x2="143" y2="278" style="stroke:black;stroke-width:1" />
 <line x1="143" y1="278" x2="138" y2="117" style="stroke:black;stroke-width:1" />
    <line   visibility="hidden"  id="bestline3"   x1="138" y1="117" x2="138" y2="1585" stroke="green" />
    <line   visibility="hidden"  id="bestlinejump3"    x1="135" y1="117" x2="135" y2="1585" stroke="red" stroke-dasharray="5, 10"/>
 <circle id="bestScore20" onmousemove="ShowTooltip(evt, 'inter/intra: 1.57e-05 Nb species: 27 / 27 [26 subsets] dist:0.000273')"   onmouseout="HideTooltip(evt)" onclick="circle_click(3);" cx="138" cy="117" r="7" style="fill:#FFFF00;stroke:black;" />
 <line x1="138" y1="117" x2="133" y2="192" style="stroke:black;stroke-width:1" />
    <line   visibility="hidden"  id="bestline6"   x1="133" y1="192" x2="133" y2="1585" stroke="green" />
    <line   visibility="hidden"  id="bestlinejump6"    x1="131" y1="192" x2="131" y2="1585" stroke="red" stroke-dasharray="5, 10"/>
 <circle id="bestScore19" onmousemove="ShowTooltip(evt, 'inter/intra: 6.83e-06 Nb species: 28 / 28 [27 subsets] dist:0.000195')"   onmouseout="HideTooltip(evt)" onclick="circle_click(6);" cx="133" cy="192" r="7" style="fill:#FFFF00;stroke:black;" />
 <line x1="133" y1="192" x2="129" y2="284" style="stroke:black;stroke-width:1" />
 <line x1="129" y1="284" x2="128" y2="370" style="stroke:black;stroke-width:1" />
 <line x1="128" y1="370" x2="127" y2="226" style="stroke:black;stroke-width:1" />
 <line x1="127" y1="226" x2="126" y2="215" style="stroke:black;stroke-width:1" />
 <line x1="126" y1="215" x2="124" y2="341" style="stroke:black;stroke-width:1" />
 <line x1="124" y1="341" x2="124" y2="341" style="stroke:black;stroke-width:1" />
 <line x1="124" y1="341" x2="124" y2="221" style="stroke:black;stroke-width:1" />
 <line x1="124" y1="221" x2="121" y2="295" style="stroke:black;stroke-width:1" />
 <line x1="121" y1="295" x2="121" y2="255" style="stroke:black;stroke-width:1" />
 <line x1="121" y1="255" x2="121" y2="318" style="stroke:black;stroke-width:1" />
 <line x1="121" y1="318" x2="121" y2="267" style="stroke:black;stroke-width:1" />
 <line x1="121" y1="267" x2="120" y2="295" style="stroke:black;stroke-width:1" />
 <line x1="120" y1="295" x2="120" y2="473" style="stroke:black;stroke-width:1" />
 <line x1="120" y1="473" x2="120" y2="485" style="stroke:black;stroke-width:1" />
 <line x1="120" y1="485" x2="120" y2="514" style="stroke:black;stroke-width:1" />
 <line x1="120" y1="514" x2="120" y2="514" style="stroke:black;stroke-width:1" />
 <line x1="120" y1="514" x2="120" y2="531" style="stroke:black;stroke-width:1" />
 <line x1="120" y1="531" x2="120" y2="330" style="stroke:black;stroke-width:1" />
 <line x1="120" y1="330" x2="120" y2="514" style="stroke:black;stroke-width:1" />
  <text x="10" y="622" style="color:black;font-size :12;font-family = monospace;" >Legend:</text>
 <circle cx="80" cy="610" r="6" fill="#320000" />
  <text x="75" y="625" style="color:black;font-size :12;font-family = monospace;" >&lt;0.001</text>
 <circle cx="142" cy="610" r="6" fill="#F00000" />
  <text x="137" y="625" style="color:black;font-size :12;font-family = monospace;" >&lt;0.05</text>
 <circle cx="204" cy="610" r="6" fill="#FFAF00" />
  <text x="199" y="625" style="color:black;font-size :12;font-family = monospace;" >&lt;0.1</text>
 <circle cx="266" cy="610" r="6" fill="#FFFF00" />
  <text x="261" y="625" style="color:black;font-size :12;font-family = monospace;" >&gt;0.1</text>
 <circle cx="328" cy="610" r="6" fill="#CCCCCC" />
  <text x="323" y="625" style="color:black;font-size :12;font-family = monospace;" >N/A</text>
 <line x1="400" y1="625" x2="410" y2="625" style="stroke:#ffb83b;stroke-width:1" />
</svg>
