<svg xmlns="http://www.w3.org/2000/svg"  width="405" height="305" >
<g>
<line x1="40" y1="40"  x2="40" y2="240" style=" stroke: black;"/>
<line x1="40" y1="240"  x2="340" y2="240" style=" stroke: black;"/>
<line x1="37" y1="219"  x2="40" y2="219" style=" stroke: black;"/>
<text x="5" y="219" style="font-family: monospace; font-size: 8px;">38</text>
<line x1="37" y1="199"  x2="40" y2="199" style=" stroke: black;"/>
<text x="5" y="199" style="font-family: monospace; font-size: 8px;">77</text>
<line x1="37" y1="179"  x2="40" y2="179" style=" stroke: black;"/>
<text x="5" y="179" style="font-family: monospace; font-size: 8px;">116</text>
<line x1="37" y1="159"  x2="40" y2="159" style=" stroke: black;"/>
<text x="5" y="159" style="font-family: monospace; font-size: 8px;">154</text>
<line x1="37" y1="139"  x2="40" y2="139" style=" stroke: black;"/>
<text x="5" y="139" style="font-family: monospace; font-size: 8px;">193</text>
<line x1="37" y1="119"  x2="40" y2="119" style=" stroke: black;"/>
<text x="5" y="119" style="font-family: monospace; font-size: 8px;">232</text>
<line x1="37" y1="99"  x2="40" y2="99" style=" stroke: black;"/>
<text x="5" y="99" style="font-family: monospace; font-size: 8px;">270</text>
<line x1="37" y1="79"  x2="40" y2="79" style=" stroke: black;"/>
<text x="5" y="79" style="font-family: monospace; font-size: 8px;">309</text>
<line x1="37" y1="59"  x2="40" y2="59" style=" stroke: black;"/>
<text x="5" y="59" style="font-family: monospace; font-size: 8px;">348</text>
<line x1="37" y1="39"  x2="40" y2="39" style=" stroke: black;"/>
<text x="5" y="39" style="font-family: monospace; font-size: 8px;">387</text>
<text x="5" y="15" style="font-family: monospace; font-size: 10px;">Nbr</text>
<text x="270" y="280" style="font-family: monospace; font-size: 10px;">Dist. Dt</text>
<rect x="40" y="182" width="15" height="57"  fill= "#ffb83b"  style=" stroke: black;" />
<line x1="40" y1="240"  x2="40" y2="245" style=" stroke: black;"/>
<text x="40" y="246" transform="rotate(90,40,246)" style="font-family: monospace; font-size: 8px;">0.00</text>
<rect x="55" y="167" width="15" height="72"  fill= "#ffb83b"  style=" stroke: black;" />
<line x1="55" y1="240"  x2="55" y2="245" style=" stroke: black;"/>
<text x="55" y="246" transform="rotate(90,55,246)" style="font-family: monospace; font-size: 8px;">0.00</text>
<rect x="70" y="223" width="15" height="16"  fill= "#ffb83b"  style=" stroke: black;" />
<line x1="70" y1="240"  x2="70" y2="245" style=" stroke: black;"/>
<text x="70" y="246" transform="rotate(90,70,246)" style="font-family: monospace; font-size: 8px;">0.00</text>
<rect x="85" y="206" width="15" height="33"  fill= "#ffb83b"  style=" stroke: black;" />
<line x1="85" y1="240"  x2="85" y2="245" style=" stroke: black;"/>
<text x="85" y="246" transform="rotate(90,85,246)" style="font-family: monospace; font-size: 8px;">0.00</text>
<rect x="100" y="237" width="15" height="2"  fill= "#ffb83b"  style=" stroke: black;" />
<line x1="100" y1="240"  x2="100" y2="245" style=" stroke: black;"/>
<text x="100" y="246" transform="rotate(90,100,246)" style="font-family: monospace; font-size: 8px;">0.00</text>
<rect x="115" y="240" width="15" height="0"  fill= "#ffb83b"  style=" stroke: black;" />
<line x1="115" y1="240"  x2="115" y2="245" style=" stroke: black;"/>
<text x="115" y="246" transform="rotate(90,115,246)" style="font-family: monospace; font-size: 8px;">0.00</text>
<rect x="130" y="240" width="15" height="0"  fill= "#ffb83b"  style=" stroke: black;" />
<line x1="130" y1="240"  x2="130" y2="245" style=" stroke: black;"/>
<text x="130" y="246" transform="rotate(90,130,246)" style="font-family: monospace; font-size: 8px;">0.01</text>
<rect x="145" y="239" width="15" height="0"  fill= "#ffb83b"  style=" stroke: black;" />
<line x1="145" y1="240"  x2="145" y2="245" style=" stroke: black;"/>
<text x="145" y="246" transform="rotate(90,145,246)" style="font-family: monospace; font-size: 8px;">0.01</text>
<rect x="160" y="224" width="15" height="15"  fill= "#ffb83b"  style=" stroke: black;" />
<line x1="160" y1="240"  x2="160" y2="245" style=" stroke: black;"/>
<text x="160" y="246" transform="rotate(90,160,246)" style="font-family: monospace; font-size: 8px;">0.01</text>
<rect x="175" y="155" width="15" height="84"  fill= "#ffb83b"  style=" stroke: black;" />
<line x1="175" y1="240"  x2="175" y2="245" style=" stroke: black;"/>
<text x="175" y="246" transform="rotate(90,175,246)" style="font-family: monospace; font-size: 8px;">0.01</text>
<rect x="190" y="230" width="15" height="9"  fill= "#ffb83b"  style=" stroke: black;" />
<line x1="190" y1="240"  x2="190" y2="245" style=" stroke: black;"/>
<text x="190" y="246" transform="rotate(90,190,246)" style="font-family: monospace; font-size: 8px;">0.01</text>
<rect x="205" y="240" width="15" height="0"  fill= "#ffb83b"  style=" stroke: black;" />
<line x1="205" y1="240"  x2="205" y2="245" style=" stroke: black;"/>
<text x="205" y="246" transform="rotate(90,205,246)" style="font-family: monospace; font-size: 8px;">0.01</text>
<rect x="220" y="240" width="15" height="0"  fill= "#ffb83b"  style=" stroke: black;" />
<line x1="220" y1="240"  x2="220" y2="245" style=" stroke: black;"/>
<text x="220" y="246" transform="rotate(90,220,246)" style="font-family: monospace; font-size: 8px;">0.01</text>
<rect x="235" y="236" width="15" height="3"  fill= "#ffb83b"  style=" stroke: black;" />
<line x1="235" y1="240"  x2="235" y2="245" style=" stroke: black;"/>
<text x="235" y="246" transform="rotate(90,235,246)" style="font-family: monospace; font-size: 8px;">0.01</text>
<rect x="250" y="240" width="15" height="0"  fill= "#ffb83b"  style=" stroke: black;" />
<line x1="250" y1="240"  x2="250" y2="245" style=" stroke: black;"/>
<text x="250" y="246" transform="rotate(90,250,246)" style="font-family: monospace; font-size: 8px;">0.01</text>
<rect x="265" y="240" width="15" height="0"  fill= "#ffb83b"  style=" stroke: black;" />
<line x1="265" y1="240"  x2="265" y2="245" style=" stroke: black;"/>
<text x="265" y="246" transform="rotate(90,265,246)" style="font-family: monospace; font-size: 8px;">0.01</text>
<rect x="280" y="240" width="15" height="0"  fill= "#ffb83b"  style=" stroke: black;" />
<line x1="280" y1="240"  x2="280" y2="245" style=" stroke: black;"/>
<text x="280" y="246" transform="rotate(90,280,246)" style="font-family: monospace; font-size: 8px;">0.01</text>
<rect x="295" y="212" width="15" height="27"  fill= "#ffb83b"  style=" stroke: black;" />
<line x1="295" y1="240"  x2="295" y2="245" style=" stroke: black;"/>
<text x="295" y="246" transform="rotate(90,295,246)" style="font-family: monospace; font-size: 8px;">0.02</text>
<rect x="310" y="39" width="15" height="200"  fill= "#ffb83b"  style=" stroke: black;" />
<line x1="310" y1="240"  x2="310" y2="245" style=" stroke: black;"/>
<text x="310" y="246" transform="rotate(90,310,246)" style="font-family: monospace; font-size: 8px;">0.02</text>
<rect x="325" y="203" width="15" height="36"  fill= "#ffb83b"  style=" stroke: black;" />
<line x1="325" y1="240"  x2="325" y2="245" style=" stroke: black;"/>
<text x="325" y="246" transform="rotate(90,325,246)" style="font-family: monospace; font-size: 8px;">0.02</text>
<line id="CutDis10" visibility="hidden" x1="120" y1="240"  x2="120" y2="40" style=" stroke: red;"/>
<line id="CutDis9" visibility="hidden" x1="59" y1="240"  x2="59" y2="40" style=" stroke: red;"/>
<line id="CutDis8" visibility="hidden" x1="56" y1="240"  x2="56" y2="40" style=" stroke: red;"/>
<line id="CutDis7" visibility="hidden" x1="45" y1="240"  x2="45" y2="40" style=" stroke: red;"/>
<line id="CutDis6" visibility="hidden" x1="42" y1="240"  x2="42" y2="40" style=" stroke: red;"/>
<line id="CutDis5" visibility="hidden" x1="54" y1="240"  x2="54" y2="40" style=" stroke: red;"/>
<line id="CutDis4" visibility="hidden" x1="47" y1="240"  x2="47" y2="40" style=" stroke: red;"/>
<line id="CutDis3" visibility="hidden" x1="43" y1="240"  x2="43" y2="40" style=" stroke: red;"/>
<line id="CutDis2" visibility="hidden" x1="53" y1="240"  x2="53" y2="40" style=" stroke: red;"/>
<line id="CutDis1" visibility="hidden" x1="50" y1="240"  x2="50" y2="40" style=" stroke: red;"/>
</g>
</svg>
