<svg xmlns="http://www.w3.org/2000/svg"  width="345" height="285" >
<g>
<line x1="40" y1="40"  x2="40" y2="240" style=" stroke: black;"/>
<line x1="40" y1="240"  x2="340" y2="240" style=" stroke: black;"/>
<line x1="37" y1="220"  x2="40" y2="220" style=" stroke: black;"/>
<text x="8" y="220" style="font-family: monospace; font-size: 8px;">0.00</text>
<line x1="37" y1="200"  x2="40" y2="200" style=" stroke: black;"/>
<text x="8" y="200" style="font-family: monospace; font-size: 8px;">0.00</text>
<line x1="37" y1="180"  x2="40" y2="180" style=" stroke: black;"/>
<text x="8" y="180" style="font-family: monospace; font-size: 8px;">0.01</text>
<line x1="37" y1="160"  x2="40" y2="160" style=" stroke: black;"/>
<text x="8" y="160" style="font-family: monospace; font-size: 8px;">0.01</text>
<line x1="37" y1="140"  x2="40" y2="140" style=" stroke: black;"/>
<text x="8" y="140" style="font-family: monospace; font-size: 8px;">0.01</text>
<line x1="37" y1="120"  x2="40" y2="120" style=" stroke: black;"/>
<text x="8" y="120" style="font-family: monospace; font-size: 8px;">0.01</text>
<line x1="37" y1="100"  x2="40" y2="100" style=" stroke: black;"/>
<text x="8" y="100" style="font-family: monospace; font-size: 8px;">0.01</text>
<line x1="37" y1="80"  x2="40" y2="80" style=" stroke: black;"/>
<text x="8" y="80" style="font-family: monospace; font-size: 8px;">0.01</text>
<line x1="37" y1="60"  x2="40" y2="60" style=" stroke: black;"/>
<text x="8" y="60" style="font-family: monospace; font-size: 8px;">0.02</text>
<line x1="37" y1="40"  x2="40" y2="40" style=" stroke: black;"/>
<text x="8" y="40" style="font-family: monospace; font-size: 8px;">0.02</text>
<line x1="70" y1="240"  x2="70" y2="245" style=" stroke: black;"/>
<text x="70" y="245" transform="rotate(90,70,245)" style="font-family: monospace; font-size: 8px;">108</text>
<line x1="100" y1="240"  x2="100" y2="245" style=" stroke: black;"/>
<text x="100" y="245" transform="rotate(90,100,245)" style="font-family: monospace; font-size: 8px;">216</text>
<line x1="130" y1="240"  x2="130" y2="245" style=" stroke: black;"/>
<text x="130" y="245" transform="rotate(90,130,245)" style="font-family: monospace; font-size: 8px;">324</text>
<line x1="160" y1="240"  x2="160" y2="245" style=" stroke: black;"/>
<text x="160" y="245" transform="rotate(90,160,245)" style="font-family: monospace; font-size: 8px;">432</text>
<line x1="190" y1="240"  x2="190" y2="245" style=" stroke: black;"/>
<text x="190" y="245" transform="rotate(90,190,245)" style="font-family: monospace; font-size: 8px;">540</text>
<line x1="220" y1="240"  x2="220" y2="245" style=" stroke: black;"/>
<text x="220" y="245" transform="rotate(90,220,245)" style="font-family: monospace; font-size: 8px;">648</text>
<line x1="250" y1="240"  x2="250" y2="245" style=" stroke: black;"/>
<text x="250" y="245" transform="rotate(90,250,245)" style="font-family: monospace; font-size: 8px;">756</text>
<line x1="280" y1="240"  x2="280" y2="245" style=" stroke: black;"/>
<text x="280" y="245" transform="rotate(90,280,245)" style="font-family: monospace; font-size: 8px;">864</text>
<line x1="310" y1="240"  x2="310" y2="245" style=" stroke: black;"/>
<text x="310" y="245" transform="rotate(90,310,245)" style="font-family: monospace; font-size: 8px;">972</text>
<line x1="340" y1="240"  x2="340" y2="245" style=" stroke: black;"/>
<text x="340" y="245" transform="rotate(90,340,245)" style="font-family: monospace; font-size: 8px;">1080</text>
<text x="5" y="8" style="font-family: monospace; font-size: 10px;">Dist. Dt</text>
<text x="320" y="230" style="font-family: monospace; font-size: 10px;">Rank</text>
<polyline style="stroke: #00a5eb; stroke-width:1;fill: none;"  points="40 239,41 239,42 239,43 239,44 239,45 239,46 239,47 239,48 238,49 238,50 238,51 238,52 238,52 237,53 237,54 237,54 236,55 236,56 236,57 236,57 235,58 235,59 235,60 235,61 235,62 235,63 235,63 234,64 234,64 233,65 233,66 233,67 233,67 232,68 232,68 231,69 231,69 230,70 230,70 229,71 229,72 229,73 228,74 228,75 228,76 228,76 227,77 227,78 227,79 227,80 227,81 227,82 227,83 227,84 227,84 226,85 226,86 226,87 226,88 225,89 225,89 224,90 224,91 224,92 224,92 223,93 223,94 223,95 223,96 223,97 223,98 223,98 222,99 222,100 222,101 222,102 222,103 222,104 221,105 220,106 220,107 220,108 220,109 220,109 219,110 219,111 219,112 219,112 218,113 218,114 218,114 217,115 216,115 215,116 215,116 213,117 211,117 210,118 210,118 209,119 208,120 208,121 208,122 208,123 208,124 208,124 207,125 207,126 207,127 207,128 206,129 206,129 205,130 205,130 204,131 203,132 203,132 202,133 202,134 202,134 201,135 201,135 200,136 200,136 199,137 194,137 160,137 157,138 157,138 156,138 155,139 155,140 155,140 154,141 154,142 154,142 152,143 152,143 151,144 151,145 151,145 150,146 150,146 147,147 147,148 147,149 147,150 147,151 147,151 145,151 144,152 144,153 144,154 144,155 144,156 144,157 144,158 144,159 144,160 144,161 144,162 144,163 144,164 144,165 144,166 144,167 144,168 142,169 142,170 142,171 142,172 142,173 142,174 142,174 141,175 141,176 141,177 141,178 141,179 141,180 141,181 141,182 141,183 141,184 141,185 141,186 141,186 140,187 140,188 140,189 140,190 140,191 140,191 139,192 139,193 137,194 137,194 133,195 133,196 133,196 103,197 103,198 69,198 67,199 64,199 62,200 61,201 61,202 61,202 60,203 60,204 60,205 60,206 60,207 60,208 60,209 60,210 60,211 60,212 60,212 59,213 59,214 59,215 59,216 59,217 59,218 59,219 59,220 59,221 59,222 59,223 59,224 59,225 59,225 58,226 58,227 58,228 58,229 58,230 58,231 58,232 58,233 58,234 58,235 58,236 58,237 58,238 58,238 57,239 57,240 57,241 57,242 57,243 57,244 57,245 57,246 57,246 56,247 56,248 56,249 56,250 56,251 56,252 56,252 55,253 55,254 55,255 55,256 55,257 55,258 54,259 54,260 54,261 54,262 54,263 54,264 54,265 54,266 54,267 54,268 54,269 54,270 54,271 54,272 54,273 54,274 54,275 54,276 54,276 53,277 53,278 53,279 53,280 53,281 53,282 53,283 53,284 53,285 53,286 53,287 53,288 53,288 52,289 52,290 52,291 52,292 52,293 52,294 52,295 52,296 52,297 52,298 52,298 51,299 51,300 51,301 51,302 51,303 51,304 51,305 51,306 51,307 51,308 51,309 51,310 51,311 51,312 51,312 50,313 50,314 50,315 50,316 50,317 50,318 50,319 50,320 50,320 49,321 49,322 49,323 49,324 49,325 49,326 48,327 48,328 48,328 47,329 47,330 47,330 46,331 46,331 45,332 45,333 45,333 44,334 44,335 44,335 43,335 42,336 42,337 41,338 41,338 40,339 40,339 39"/><line id="CutDis10" visibility="hidden" x1="40" y1="186"  x2="340" y2="186" style=" stroke: red;"/>
<line id="CutDis9" visibility="hidden" x1="40" y1="227"  x2="340" y2="227" style=" stroke: red;"/>
<line id="CutDis8" visibility="hidden" x1="40" y1="229"  x2="340" y2="229" style=" stroke: red;"/>
<line id="CutDis7" visibility="hidden" x1="40" y1="236"  x2="340" y2="236" style=" stroke: red;"/>
<line id="CutDis6" visibility="hidden" x1="40" y1="238"  x2="340" y2="238" style=" stroke: red;"/>
<line id="CutDis5" visibility="hidden" x1="40" y1="230"  x2="340" y2="230" style=" stroke: red;"/>
<line id="CutDis4" visibility="hidden" x1="40" y1="235"  x2="340" y2="235" style=" stroke: red;"/>
<line id="CutDis3" visibility="hidden" x1="40" y1="237"  x2="340" y2="237" style=" stroke: red;"/>
<line id="CutDis2" visibility="hidden" x1="40" y1="231"  x2="340" y2="231" style=" stroke: red;"/>
<line id="CutDis1" visibility="hidden" x1="40" y1="232"  x2="340" y2="232" style=" stroke: red;"/>

</g>
</svg>
