<svg xmlns="http://www.w3.org/2000/svg" onload="init(evt)" width="1306" height="1600" >
 <line x1="120" y1="1340" x2="120" y2="1340" style="stroke:black;stroke-width:1" />
 <line x1="120" y1="1360" x2="120" y2="1360" style="stroke:black;stroke-width:1" />
 <line x1="120" y1="1340" x2="120" y2="1360" style="stroke:black;stroke-width:1" />
 <line x1="120" y1="1350" x2="120" y2="1350" style="stroke:black;stroke-width:1" />
 <line x1="120" y1="1380" x2="120" y2="1380" style="stroke:black;stroke-width:1" />
 <line x1="120" y1="1350" x2="120" y2="1380" style="stroke:black;stroke-width:1" />
 <line x1="120" y1="840" x2="120" y2="840" style="stroke:black;stroke-width:1" />
 <line x1="120" y1="860" x2="120" y2="860" style="stroke:black;stroke-width:1" />
 <line x1="120" y1="840" x2="120" y2="860" style="stroke:black;stroke-width:1" />
 <line x1="120" y1="1000" x2="120" y2="1000" style="stroke:black;stroke-width:1" />
 <line x1="120" y1="1020" x2="120" y2="1020" style="stroke:black;stroke-width:1" />
 <line x1="120" y1="1000" x2="120" y2="1020" style="stroke:black;stroke-width:1" />
 <line x1="120" y1="1080" x2="120" y2="1080" style="stroke:black;stroke-width:1" />
 <line x1="120" y1="1100" x2="120" y2="1100" style="stroke:black;stroke-width:1" />
 <line x1="120" y1="1080" x2="120" y2="1100" style="stroke:black;stroke-width:1" />
 <line x1="120" y1="660" x2="120" y2="660" style="stroke:black;stroke-width:1" />
 <line x1="120" y1="680" x2="120" y2="680" style="stroke:black;stroke-width:1" />
 <line x1="120" y1="660" x2="120" y2="680" style="stroke:black;stroke-width:1" />
 <line x1="120" y1="1140" x2="120" y2="1140" style="stroke:black;stroke-width:1" />
 <line x1="120" y1="1160" x2="120" y2="1160" style="stroke:black;stroke-width:1" />
 <line x1="120" y1="1140" x2="120" y2="1160" style="stroke:black;stroke-width:1" />
 <line x1="120" y1="670" x2="120" y2="670" style="stroke:black;stroke-width:1" />
 <line x1="120" y1="700" x2="120" y2="700" style="stroke:black;stroke-width:1" />
 <line x1="120" y1="670" x2="120" y2="700" style="stroke:black;stroke-width:1" />
 <line x1="120" y1="685" x2="121" y2="685" style="stroke:black;stroke-width:1" />
 <line x1="120" y1="720" x2="121" y2="720" style="stroke:black;stroke-width:1" />
 <line x1="121" y1="685" x2="121" y2="720" style="stroke:black;stroke-width:1" />
 <line x1="121" y1="702" x2="121" y2="702" style="stroke:black;stroke-width:1" />
 <line x1="120" y1="740" x2="121" y2="740" style="stroke:black;stroke-width:1" />
 <line x1="121" y1="702" x2="121" y2="740" style="stroke:black;stroke-width:1" />
 <line x1="120" y1="820" x2="121" y2="820" style="stroke:black;stroke-width:1" />
 <line x1="120" y1="850" x2="121" y2="850" style="stroke:black;stroke-width:1" />
 <line x1="121" y1="820" x2="121" y2="850" style="stroke:black;stroke-width:1" />
 <line x1="121" y1="721" x2="121" y2="721" style="stroke:black;stroke-width:1" />
 <line x1="120" y1="760" x2="121" y2="760" style="stroke:black;stroke-width:1" />
 <line x1="121" y1="721" x2="121" y2="760" style="stroke:black;stroke-width:1" />
 <line x1="121" y1="835" x2="124" y2="835" style="stroke:black;stroke-width:1" />
 <line x1="120" y1="880" x2="124" y2="880" style="stroke:black;stroke-width:1" />
 <line x1="124" y1="835" x2="124" y2="880" style="stroke:black;stroke-width:1" />
 <line x1="120" y1="900" x2="124" y2="900" style="stroke:black;stroke-width:1" />
 <line x1="120" y1="920" x2="124" y2="920" style="stroke:black;stroke-width:1" />
 <line x1="124" y1="900" x2="124" y2="920" style="stroke:black;stroke-width:1" />
 <line x1="120" y1="1260" x2="124" y2="1260" style="stroke:black;stroke-width:1" />
 <line x1="120" y1="1280" x2="124" y2="1280" style="stroke:black;stroke-width:1" />
 <line x1="124" y1="1260" x2="124" y2="1280" style="stroke:black;stroke-width:1" />
 <line x1="120" y1="800" x2="126" y2="800" style="stroke:black;stroke-width:1" />
 <line x1="124" y1="857" x2="126" y2="857" style="stroke:black;stroke-width:1" />
 <line x1="126" y1="800" x2="126" y2="857" style="stroke:black;stroke-width:1" />
 <line x1="126" y1="828" x2="126" y2="828" style="stroke:black;stroke-width:1" />
 <line x1="124" y1="910" x2="126" y2="910" style="stroke:black;stroke-width:1" />
 <line x1="126" y1="828" x2="126" y2="910" style="stroke:black;stroke-width:1" />
 <line x1="120" y1="960" x2="127" y2="960" style="stroke:black;stroke-width:1" />
 <line x1="120" y1="980" x2="127" y2="980" style="stroke:black;stroke-width:1" />
 <line x1="127" y1="960" x2="127" y2="980" style="stroke:black;stroke-width:1" />
 <line x1="126" y1="869" x2="128" y2="869" style="stroke:black;stroke-width:1" />
 <line x1="120" y1="940" x2="128" y2="940" style="stroke:black;stroke-width:1" />
 <line x1="128" y1="869" x2="128" y2="940" style="stroke:black;stroke-width:1" />
 <line x1="120" y1="1150" x2="132" y2="1150" style="stroke:black;stroke-width:1" />
 <line x1="120" y1="1180" x2="132" y2="1180" style="stroke:black;stroke-width:1" />
 <line x1="132" y1="1150" x2="132" y2="1180" style="stroke:black;stroke-width:1" />
 <line x1="128" y1="904" x2="137" y2="904" style="stroke:black;stroke-width:1" />
 <line x1="127" y1="970" x2="137" y2="970" style="stroke:black;stroke-width:1" />
 <line x1="137" y1="904" x2="137" y2="970" style="stroke:black;stroke-width:1" />
 <line x1="137" y1="937" x2="141" y2="937" style="stroke:black;stroke-width:1" />
 <line x1="120" y1="1010" x2="141" y2="1010" style="stroke:black;stroke-width:1" />
 <line x1="141" y1="937" x2="141" y2="1010" style="stroke:black;stroke-width:1" />
 <line x1="120" y1="1320" x2="144" y2="1320" style="stroke:black;stroke-width:1" />
 <line x1="120" y1="1365" x2="144" y2="1365" style="stroke:black;stroke-width:1" />
 <line x1="144" y1="1320" x2="144" y2="1365" style="stroke:black;stroke-width:1" />
 <line x1="141" y1="973" x2="152" y2="973" style="stroke:black;stroke-width:1" />
 <line x1="120" y1="1040" x2="152" y2="1040" style="stroke:black;stroke-width:1" />
 <line x1="152" y1="973" x2="152" y2="1040" style="stroke:black;stroke-width:1" />
 <line x1="144" y1="1342" x2="170" y2="1342" style="stroke:black;stroke-width:1" />
 <line x1="120" y1="1400" x2="170" y2="1400" style="stroke:black;stroke-width:1" />
 <line x1="170" y1="1342" x2="170" y2="1400" style="stroke:black;stroke-width:1" />
 <line x1="152" y1="1006" x2="172" y2="1006" style="stroke:black;stroke-width:1" />
 <line x1="120" y1="1060" x2="172" y2="1060" style="stroke:black;stroke-width:1" />
 <line x1="172" y1="1006" x2="172" y2="1060" style="stroke:black;stroke-width:1" />
 <line x1="120" y1="1420" x2="173" y2="1420" style="stroke:black;stroke-width:1" />
 <line x1="120" y1="1440" x2="173" y2="1440" style="stroke:black;stroke-width:1" />
 <line x1="173" y1="1420" x2="173" y2="1440" style="stroke:black;stroke-width:1" />
 <line x1="120" y1="780" x2="180" y2="780" style="stroke:black;stroke-width:1" />
 <line x1="172" y1="1033" x2="180" y2="1033" style="stroke:black;stroke-width:1" />
 <line x1="180" y1="780" x2="180" y2="1033" style="stroke:black;stroke-width:1" />
 <line x1="180" y1="906" x2="184" y2="906" style="stroke:black;stroke-width:1" />
 <line x1="120" y1="1090" x2="184" y2="1090" style="stroke:black;stroke-width:1" />
 <line x1="184" y1="906" x2="184" y2="1090" style="stroke:black;stroke-width:1" />
 <line x1="120" y1="1560" x2="185" y2="1560" style="stroke:black;stroke-width:1" />
 <line x1="120" y1="1580" x2="185" y2="1580" style="stroke:black;stroke-width:1" />
 <line x1="185" y1="1560" x2="185" y2="1580" style="stroke:black;stroke-width:1" />
 <line x1="184" y1="998" x2="190" y2="998" style="stroke:black;stroke-width:1" />
 <line x1="120" y1="1120" x2="190" y2="1120" style="stroke:black;stroke-width:1" />
 <line x1="190" y1="998" x2="190" y2="1120" style="stroke:black;stroke-width:1" />
 <line x1="132" y1="1165" x2="199" y2="1165" style="stroke:black;stroke-width:1" />
 <line x1="120" y1="1200" x2="199" y2="1200" style="stroke:black;stroke-width:1" />
 <line x1="199" y1="1165" x2="199" y2="1200" style="stroke:black;stroke-width:1" />
 <line x1="190" y1="1059" x2="205" y2="1059" style="stroke:black;stroke-width:1" />
 <line x1="199" y1="1182" x2="205" y2="1182" style="stroke:black;stroke-width:1" />
 <line x1="205" y1="1059" x2="205" y2="1182" style="stroke:black;stroke-width:1" />
 <line x1="205" y1="1120" x2="234" y2="1120" style="stroke:black;stroke-width:1" />
 <line x1="120" y1="1220" x2="234" y2="1220" style="stroke:black;stroke-width:1" />
 <line x1="234" y1="1120" x2="234" y2="1220" style="stroke:black;stroke-width:1" />
 <line x1="234" y1="1170" x2="235" y2="1170" style="stroke:black;stroke-width:1" />
 <line x1="120" y1="1240" x2="235" y2="1240" style="stroke:black;stroke-width:1" />
 <line x1="235" y1="1170" x2="235" y2="1240" style="stroke:black;stroke-width:1" />
 <line x1="235" y1="1205" x2="284" y2="1205" style="stroke:black;stroke-width:1" />
 <line x1="124" y1="1270" x2="284" y2="1270" style="stroke:black;stroke-width:1" />
 <line x1="284" y1="1205" x2="284" y2="1270" style="stroke:black;stroke-width:1" />
 <line x1="284" y1="1237" x2="583" y2="1237" style="stroke:black;stroke-width:1" />
 <line x1="120" y1="1300" x2="583" y2="1300" style="stroke:black;stroke-width:1" />
 <line x1="583" y1="1237" x2="583" y2="1300" style="stroke:black;stroke-width:1" />
 <line x1="121" y1="740" x2="636" y2="740" style="stroke:black;stroke-width:1" />
 <line x1="583" y1="1268" x2="636" y2="1268" style="stroke:black;stroke-width:1" />
 <line x1="636" y1="740" x2="636" y2="1268" style="stroke:black;stroke-width:1" />
 <line x1="636" y1="1004" x2="687" y2="1004" style="stroke:black;stroke-width:1" />
 <line x1="170" y1="1371" x2="687" y2="1371" style="stroke:black;stroke-width:1" />
 <line x1="687" y1="1004" x2="687" y2="1371" style="stroke:black;stroke-width:1" />
 <line x1="687" y1="1187" x2="1116" y2="1187" style="stroke:black;stroke-width:1" />
 <line x1="173" y1="1430" x2="1116" y2="1430" style="stroke:black;stroke-width:1" />
 <line x1="1116" y1="1187" x2="1116" y2="1430" style="stroke:black;stroke-width:1" />
 <line x1="1116" y1="1308" x2="1154" y2="1308" style="stroke:black;stroke-width:1" />
 <line x1="120" y1="1460" x2="1154" y2="1460" style="stroke:black;stroke-width:1" />
 <line x1="1154" y1="1308" x2="1154" y2="1460" style="stroke:black;stroke-width:1" />
 <line x1="1154" y1="1384" x2="1164" y2="1384" style="stroke:black;stroke-width:1" />
 <line x1="120" y1="1480" x2="1164" y2="1480" style="stroke:black;stroke-width:1" />
 <line x1="1164" y1="1384" x2="1164" y2="1480" style="stroke:black;stroke-width:1" />
 <line x1="1164" y1="1432" x2="1171" y2="1432" style="stroke:black;stroke-width:1" />
 <line x1="120" y1="1500" x2="1171" y2="1500" style="stroke:black;stroke-width:1" />
 <line x1="1171" y1="1432" x2="1171" y2="1500" style="stroke:black;stroke-width:1" />
 <line x1="1171" y1="1466" x2="1172" y2="1466" style="stroke:black;stroke-width:1" />
 <line x1="120" y1="1520" x2="1172" y2="1520" style="stroke:black;stroke-width:1" />
 <line x1="1172" y1="1466" x2="1172" y2="1520" style="stroke:black;stroke-width:1" />
 <line x1="1172" y1="1493" x2="1196" y2="1493" style="stroke:black;stroke-width:1" />
 <line x1="120" y1="1540" x2="1196" y2="1540" style="stroke:black;stroke-width:1" />
 <line x1="1196" y1="1493" x2="1196" y2="1540" style="stroke:black;stroke-width:1" />
 <line x1="1196" y1="1516" x2="1208" y2="1516" style="stroke:black;stroke-width:1" />
 <line x1="185" y1="1570" x2="1208" y2="1570" style="stroke:black;stroke-width:1" />
 <line x1="1208" y1="1516" x2="1208" y2="1570" style="stroke:black;stroke-width:1" />
 <line x1="1208" y1="1543" x2="1231" y2="1543" style="stroke:black;stroke-width:1" />
  <text x="0" y="660" id="specie_0" onmousemove="ShowTooltip(evt, 'AB14-VUB')"   onmouseout="HideTooltip(evt)" style="color:black;font-size :10;font-family = monospace;" >AB14-VUB</text>
 <line x1="116" y1="660" x2="120" y2="660" style="stroke:black;stroke-width:1" />
  <text x="0" y="780" id="specie_6" onmousemove="ShowTooltip(evt, 'AB16-VUB')"   onmouseout="HideTooltip(evt)" style="color:black;font-size :10;font-family = monospace;" >AB16-VUB</text>
 <line x1="116" y1="780" x2="120" y2="780" style="stroke:black;stroke-width:1" />
  <text x="0" y="1220" id="specie_28" onmousemove="ShowTooltip(evt, 'AB167-VUB')"   onmouseout="HideTooltip(evt)" style="color:black;font-size :10;font-family = monospace;" >AB167-VUB</text>
 <line x1="116" y1="1220" x2="120" y2="1220" style="stroke:black;stroke-width:1" />
  <text x="0" y="1320" id="specie_33" onmousemove="ShowTooltip(evt, 'AB169-VUB')"   onmouseout="HideTooltip(evt)" style="color:black;font-size :10;font-family = monospace;" >AB169-VUB</text>
 <line x1="116" y1="1320" x2="120" y2="1320" style="stroke:black;stroke-width:1" />
  <text x="0" y="1140" id="specie_24" onmousemove="ShowTooltip(evt, 'AB171-VUB')"   onmouseout="HideTooltip(evt)" style="color:black;font-size :10;font-family = monospace;" >AB171-VUB</text>
 <line x1="116" y1="1140" x2="120" y2="1140" style="stroke:black;stroke-width:1" />
  <text x="0" y="1160" id="specie_25" onmousemove="ShowTooltip(evt, 'AB172-VUB')"   onmouseout="HideTooltip(evt)" style="color:black;font-size :10;font-family = monospace;" >AB172-VUB</text>
 <line x1="116" y1="1160" x2="120" y2="1160" style="stroke:black;stroke-width:1" />
  <text x="0" y="800" id="specie_7" onmousemove="ShowTooltip(evt, 'AB173-VUB')"   onmouseout="HideTooltip(evt)" style="color:black;font-size :10;font-family = monospace;" >AB173-VUB</text>
 <line x1="116" y1="800" x2="120" y2="800" style="stroke:black;stroke-width:1" />
  <text x="0" y="960" id="specie_15" onmousemove="ShowTooltip(evt, 'AB175-VUB')"   onmouseout="HideTooltip(evt)" style="color:black;font-size :10;font-family = monospace;" >AB175-VUB</text>
 <line x1="116" y1="960" x2="120" y2="960" style="stroke:black;stroke-width:1" />
  <text x="0" y="760" id="specie_5" onmousemove="ShowTooltip(evt, 'AB176-VUB')"   onmouseout="HideTooltip(evt)" style="color:black;font-size :10;font-family = monospace;" >AB176-VUB</text>
 <line x1="116" y1="760" x2="120" y2="760" style="stroke:black;stroke-width:1" />
  <text x="0" y="1560" id="specie_45" onmousemove="ShowTooltip(evt, 'AB177-VUB')"   onmouseout="HideTooltip(evt)" style="color:black;font-size :10;font-family = monospace;" >AB177-VUB</text>
 <line x1="116" y1="1560" x2="120" y2="1560" style="stroke:black;stroke-width:1" />
  <text x="0" y="1540" id="specie_44" onmousemove="ShowTooltip(evt, 'AB179-VUB')"   onmouseout="HideTooltip(evt)" style="color:black;font-size :10;font-family = monospace;" >AB179-VUB</text>
 <line x1="116" y1="1540" x2="120" y2="1540" style="stroke:black;stroke-width:1" />
  <text x="0" y="820" id="specie_8" onmousemove="ShowTooltip(evt, 'AB180-VUB')"   onmouseout="HideTooltip(evt)" style="color:black;font-size :10;font-family = monospace;" >AB180-VUB</text>
 <line x1="116" y1="820" x2="120" y2="820" style="stroke:black;stroke-width:1" />
  <text x="0" y="1200" id="specie_27" onmousemove="ShowTooltip(evt, 'AB181-VUB')"   onmouseout="HideTooltip(evt)" style="color:black;font-size :10;font-family = monospace;" >AB181-VUB</text>
 <line x1="116" y1="1200" x2="120" y2="1200" style="stroke:black;stroke-width:1" />
  <text x="0" y="880" id="specie_11" onmousemove="ShowTooltip(evt, 'AB183-VUB')"   onmouseout="HideTooltip(evt)" style="color:black;font-size :10;font-family = monospace;" >AB183-VUB</text>
 <line x1="116" y1="880" x2="120" y2="880" style="stroke:black;stroke-width:1" />
  <text x="0" y="1580" id="specie_46" onmousemove="ShowTooltip(evt, 'AB186-VUB')"   onmouseout="HideTooltip(evt)" style="color:black;font-size :10;font-family = monospace;" >AB186-VUB</text>
 <line x1="116" y1="1580" x2="120" y2="1580" style="stroke:black;stroke-width:1" />
  <text x="0" y="700" id="specie_2" onmousemove="ShowTooltip(evt, 'AB187-VUB')"   onmouseout="HideTooltip(evt)" style="color:black;font-size :10;font-family = monospace;" >AB187-VUB</text>
 <line x1="116" y1="700" x2="120" y2="700" style="stroke:black;stroke-width:1" />
  <text x="0" y="680" id="specie_1" onmousemove="ShowTooltip(evt, 'AB188-VUB')"   onmouseout="HideTooltip(evt)" style="color:black;font-size :10;font-family = monospace;" >AB188-VUB</text>
 <line x1="116" y1="680" x2="120" y2="680" style="stroke:black;stroke-width:1" />
  <text x="0" y="1260" id="specie_30" onmousemove="ShowTooltip(evt, 'AB189-VUB')"   onmouseout="HideTooltip(evt)" style="color:black;font-size :10;font-family = monospace;" >AB189-VUB</text>
 <line x1="116" y1="1260" x2="120" y2="1260" style="stroke:black;stroke-width:1" />
  <text x="0" y="1000" id="specie_17" onmousemove="ShowTooltip(evt, 'AB193-VUB')"   onmouseout="HideTooltip(evt)" style="color:black;font-size :10;font-family = monospace;" >AB193-VUB</text>
 <line x1="116" y1="1000" x2="120" y2="1000" style="stroke:black;stroke-width:1" />
  <text x="0" y="1060" id="specie_20" onmousemove="ShowTooltip(evt, 'AB194-VUB')"   onmouseout="HideTooltip(evt)" style="color:black;font-size :10;font-family = monospace;" >AB194-VUB</text>
 <line x1="116" y1="1060" x2="120" y2="1060" style="stroke:black;stroke-width:1" />
  <text x="0" y="720" id="specie_3" onmousemove="ShowTooltip(evt, 'AB20-VUB')"   onmouseout="HideTooltip(evt)" style="color:black;font-size :10;font-family = monospace;" >AB20-VUB</text>
 <line x1="116" y1="720" x2="120" y2="720" style="stroke:black;stroke-width:1" />
  <text x="0" y="1420" id="specie_38" onmousemove="ShowTooltip(evt, 'AB21-VUB')"   onmouseout="HideTooltip(evt)" style="color:black;font-size :10;font-family = monospace;" >AB21-VUB</text>
 <line x1="116" y1="1420" x2="120" y2="1420" style="stroke:black;stroke-width:1" />
  <text x="0" y="980" id="specie_16" onmousemove="ShowTooltip(evt, 'AB212-VUB')"   onmouseout="HideTooltip(evt)" style="color:black;font-size :10;font-family = monospace;" >AB212-VUB</text>
 <line x1="116" y1="980" x2="120" y2="980" style="stroke:black;stroke-width:1" />
  <text x="0" y="1020" id="specie_18" onmousemove="ShowTooltip(evt, 'AB213-VUB')"   onmouseout="HideTooltip(evt)" style="color:black;font-size :10;font-family = monospace;" >AB213-VUB</text>
 <line x1="116" y1="1020" x2="120" y2="1020" style="stroke:black;stroke-width:1" />
  <text x="0" y="840" id="specie_9" onmousemove="ShowTooltip(evt, 'AB214-VUB')"   onmouseout="HideTooltip(evt)" style="color:black;font-size :10;font-family = monospace;" >AB214-VUB</text>
 <line x1="116" y1="840" x2="120" y2="840" style="stroke:black;stroke-width:1" />
  <text x="0" y="1080" id="specie_21" onmousemove="ShowTooltip(evt, 'AB216-VUB')"   onmouseout="HideTooltip(evt)" style="color:black;font-size :10;font-family = monospace;" >AB216-VUB</text>
 <line x1="116" y1="1080" x2="120" y2="1080" style="stroke:black;stroke-width:1" />
  <text x="0" y="900" id="specie_12" onmousemove="ShowTooltip(evt, 'AB217-VUB')"   onmouseout="HideTooltip(evt)" style="color:black;font-size :10;font-family = monospace;" >AB217-VUB</text>
 <line x1="116" y1="900" x2="120" y2="900" style="stroke:black;stroke-width:1" />
  <text x="0" y="1100" id="specie_22" onmousemove="ShowTooltip(evt, 'AB219-VUB')"   onmouseout="HideTooltip(evt)" style="color:black;font-size :10;font-family = monospace;" >AB219-VUB</text>
 <line x1="116" y1="1100" x2="120" y2="1100" style="stroke:black;stroke-width:1" />
  <text x="0" y="1120" id="specie_23" onmousemove="ShowTooltip(evt, 'AB220-VUB')"   onmouseout="HideTooltip(evt)" style="color:black;font-size :10;font-family = monospace;" >AB220-VUB</text>
 <line x1="116" y1="1120" x2="120" y2="1120" style="stroke:black;stroke-width:1" />
  <text x="0" y="1280" id="specie_31" onmousemove="ShowTooltip(evt, 'AB222-VUB')"   onmouseout="HideTooltip(evt)" style="color:black;font-size :10;font-family = monospace;" >AB222-VUB</text>
 <line x1="116" y1="1280" x2="120" y2="1280" style="stroke:black;stroke-width:1" />
  <text x="0" y="920" id="specie_13" onmousemove="ShowTooltip(evt, 'AB224-VUB')"   onmouseout="HideTooltip(evt)" style="color:black;font-size :10;font-family = monospace;" >AB224-VUB</text>
 <line x1="116" y1="920" x2="120" y2="920" style="stroke:black;stroke-width:1" />
  <text x="0" y="940" id="specie_14" onmousemove="ShowTooltip(evt, 'AB226-VUB')"   onmouseout="HideTooltip(evt)" style="color:black;font-size :10;font-family = monospace;" >AB226-VUB</text>
 <line x1="116" y1="940" x2="120" y2="940" style="stroke:black;stroke-width:1" />
  <text x="0" y="1340" id="specie_34" onmousemove="ShowTooltip(evt, 'AB227-VUB')"   onmouseout="HideTooltip(evt)" style="color:black;font-size :10;font-family = monospace;" >AB227-VUB</text>
 <line x1="116" y1="1340" x2="120" y2="1340" style="stroke:black;stroke-width:1" />
  <text x="0" y="1360" id="specie_35" onmousemove="ShowTooltip(evt, 'AB229-VUB')"   onmouseout="HideTooltip(evt)" style="color:black;font-size :10;font-family = monospace;" >AB229-VUB</text>
 <line x1="116" y1="1360" x2="120" y2="1360" style="stroke:black;stroke-width:1" />
  <text x="0" y="1300" id="specie_32" onmousemove="ShowTooltip(evt, 'AB231-VUB')"   onmouseout="HideTooltip(evt)" style="color:black;font-size :10;font-family = monospace;" >AB231-VUB</text>
 <line x1="116" y1="1300" x2="120" y2="1300" style="stroke:black;stroke-width:1" />
  <text x="0" y="1380" id="specie_36" onmousemove="ShowTooltip(evt, 'AB232-VUB')"   onmouseout="HideTooltip(evt)" style="color:black;font-size :10;font-family = monospace;" >AB232-VUB</text>
 <line x1="116" y1="1380" x2="120" y2="1380" style="stroke:black;stroke-width:1" />
  <text x="0" y="860" id="specie_10" onmousemove="ShowTooltip(evt, 'AB233-VUB')"   onmouseout="HideTooltip(evt)" style="color:black;font-size :10;font-family = monospace;" >AB233-VUB</text>
 <line x1="116" y1="860" x2="120" y2="860" style="stroke:black;stroke-width:1" />
  <text x="0" y="1180" id="specie_26" onmousemove="ShowTooltip(evt, 'AB3-VUB')"   onmouseout="HideTooltip(evt)" style="color:black;font-size :10;font-family = monospace;" >AB3-VUB</text>
 <line x1="116" y1="1180" x2="120" y2="1180" style="stroke:black;stroke-width:1" />
  <text x="0" y="1480" id="specie_41" onmousemove="ShowTooltip(evt, 'AB32-VUB')"   onmouseout="HideTooltip(evt)" style="color:black;font-size :10;font-family = monospace;" >AB32-VUB</text>
 <line x1="116" y1="1480" x2="120" y2="1480" style="stroke:black;stroke-width:1" />
  <text x="0" y="1040" id="specie_19" onmousemove="ShowTooltip(evt, 'AB36-VUB')"   onmouseout="HideTooltip(evt)" style="color:black;font-size :10;font-family = monospace;" >AB36-VUB</text>
 <line x1="116" y1="1040" x2="120" y2="1040" style="stroke:black;stroke-width:1" />
  <text x="0" y="1240" id="specie_29" onmousemove="ShowTooltip(evt, 'AB39-VUB')"   onmouseout="HideTooltip(evt)" style="color:black;font-size :10;font-family = monospace;" >AB39-VUB</text>
 <line x1="116" y1="1240" x2="120" y2="1240" style="stroke:black;stroke-width:1" />
  <text x="0" y="1440" id="specie_39" onmousemove="ShowTooltip(evt, 'AB40-VUB')"   onmouseout="HideTooltip(evt)" style="color:black;font-size :10;font-family = monospace;" >AB40-VUB</text>
 <line x1="116" y1="1440" x2="120" y2="1440" style="stroke:black;stroke-width:1" />
  <text x="0" y="1400" id="specie_37" onmousemove="ShowTooltip(evt, 'AB5075-VUB')"   onmouseout="HideTooltip(evt)" style="color:black;font-size :10;font-family = monospace;" >AB5075-VUB</text>
 <line x1="116" y1="1400" x2="120" y2="1400" style="stroke:black;stroke-width:1" />
  <text x="0" y="740" id="specie_4" onmousemove="ShowTooltip(evt, 'AB9-VUB')"   onmouseout="HideTooltip(evt)" style="color:black;font-size :10;font-family = monospace;" >AB9-VUB</text>
 <line x1="116" y1="740" x2="120" y2="740" style="stroke:black;stroke-width:1" />
  <text x="0" y="1460" id="specie_40" onmousemove="ShowTooltip(evt, 'ATCC17978-VUB')"   onmouseout="HideTooltip(evt)" style="color:black;font-size :10;font-family = monospace;" >ATCC17978-VU</text>
 <line x1="116" y1="1460" x2="120" y2="1460" style="stroke:black;stroke-width:1" />
  <text x="0" y="1520" id="specie_43" onmousemove="ShowTooltip(evt, 'ATCC19606-VUB')"   onmouseout="HideTooltip(evt)" style="color:black;font-size :10;font-family = monospace;" >ATCC19606-VU</text>
 <line x1="116" y1="1520" x2="120" y2="1520" style="stroke:black;stroke-width:1" />
  <text x="0" y="1500" id="specie_42" onmousemove="ShowTooltip(evt, 'DSM30011-VUB')"   onmouseout="HideTooltip(evt)" style="color:black;font-size :10;font-family = monospace;" >DSM30011-VUB</text>
 <line x1="116" y1="1500" x2="120" y2="1500" style="stroke:black;stroke-width:1" />
<rect id="Pval47"  onmousemove="ShowTooltip(evt, 'Proba: NA dist:0.000003  nbsubsets:46 node:47 nb_under:2')"   onmouseout="HideTooltip(evt)"  			onmousedown="select_species(evt,35,2)" x="114" y="1344"  width="12" height="12"  style ="fill:#CCCCCC;stroke:black"/> 
<rect id="Pval48"  onmousemove="ShowTooltip(evt, 'Proba: 9.32e-01 dist:0.000003  nbsubsets:45 node:48 nbunder:3 ')"   onmouseout="HideTooltip(evt)"  			onmousedown="select_species(evt,36,3)" x="114" y="1359"  width="12" height="12"  style ="fill:#FFFF00;stroke:black"/> 
<rect id="Pval49"  onmousemove="ShowTooltip(evt, 'Proba: NA dist:0.000004  nbsubsets:44 node:49 nb_under:2')"   onmouseout="HideTooltip(evt)"  			onmousedown="select_species(evt,10,2)" x="114" y="844"  width="12" height="12"  style ="fill:#CCCCCC;stroke:black"/> 
<rect id="Pval50"  onmousemove="ShowTooltip(evt, 'Proba: NA dist:0.000004  nbsubsets:43 node:50 nb_under:2')"   onmouseout="HideTooltip(evt)"  			onmousedown="select_species(evt,18,2)" x="114" y="1004"  width="12" height="12"  style ="fill:#CCCCCC;stroke:black"/> 
<rect id="Pval51"  onmousemove="ShowTooltip(evt, 'Proba: NA dist:0.000004  nbsubsets:42 node:51 nb_under:2')"   onmouseout="HideTooltip(evt)"  			onmousedown="select_species(evt,22,2)" x="114" y="1084"  width="12" height="12"  style ="fill:#CCCCCC;stroke:black"/> 
<rect id="Pval52"  onmousemove="ShowTooltip(evt, 'Proba: NA dist:0.000006  nbsubsets:41 node:52 nb_under:2')"   onmouseout="HideTooltip(evt)"  			onmousedown="select_species(evt,1,2)" x="114" y="664"  width="12" height="12"  style ="fill:#CCCCCC;stroke:black"/> 
<rect id="Pval53"  onmousemove="ShowTooltip(evt, 'Proba: NA dist:0.000006  nbsubsets:40 node:53 nb_under:2')"   onmouseout="HideTooltip(evt)"  			onmousedown="select_species(evt,25,2)" x="114" y="1144"  width="12" height="12"  style ="fill:#CCCCCC;stroke:black"/> 
<rect id="Pval54"  onmousemove="ShowTooltip(evt, 'Proba: 8.90e-01 dist:0.000008  nbsubsets:39 node:54 nbunder:3 ')"   onmouseout="HideTooltip(evt)"  			onmousedown="select_species(evt,2,3)" x="114" y="679"  width="12" height="12"  style ="fill:#FFFF00;stroke:black"/> 
<rect id="Pval55"  onmousemove="ShowTooltip(evt, 'Proba: 8.27e-01 dist:0.000018  nbsubsets:38 node:55 nbunder:4 ')"   onmouseout="HideTooltip(evt)"  			onmousedown="select_species(evt,3,4)" x="115" y="696"  width="12" height="12"  style ="fill:#FFFF00;stroke:black"/> 
<rect id="Pval56"  onmousemove="ShowTooltip(evt, 'Proba: 9.68e-01 dist:0.000019  nbsubsets:37 node:56 nbunder:5 ')"   onmouseout="HideTooltip(evt)"  			onmousedown="select_species(evt,4,5)" x="115" y="715"  width="12" height="12"  style ="fill:#FFFF00;stroke:black"/> 
<rect id="Pval57"  onmousemove="ShowTooltip(evt, 'Proba: 5.30e-01 dist:0.000021  nbsubsets:36 node:57 nbunder:3 ')"   onmouseout="HideTooltip(evt)"  			onmousedown="select_species(evt,10,3)" x="115" y="829"  width="12" height="12"  style ="fill:#FFFF00;stroke:black"/> 
<rect id="Pval58"  onmousemove="ShowTooltip(evt, 'Proba: 9.34e-01 dist:0.000024  nbsubsets:35 node:58 nbunder:6 ')"   onmouseout="HideTooltip(evt)"  			onmousedown="select_species(evt,5,6)" x="115" y="734"  width="12" height="12"  style ="fill:#FFFF00;stroke:black"/> 
<rect id="Pval59"  onmousemove="ShowTooltip(evt, 'Proba: 5.20e-01 dist:0.000068  nbsubsets:34 node:59 nbunder:4 ')"   onmouseout="HideTooltip(evt)"  			onmousedown="select_species(evt,11,4)" x="118" y="851"  width="12" height="12"  style ="fill:#FFFF00;stroke:black"/> 
<rect id="Pval60"  onmousemove="ShowTooltip(evt, 'Proba: NA dist:0.000071  nbsubsets:33 node:60 nb_under:2')"   onmouseout="HideTooltip(evt)"  			onmousedown="select_species(evt,13,2)" x="118" y="904"  width="12" height="12"  style ="fill:#CCCCCC;stroke:black"/> 
<rect id="Pval61"  onmousemove="ShowTooltip(evt, 'Proba: NA dist:0.000071  nbsubsets:32 node:61 nb_under:2')"   onmouseout="HideTooltip(evt)"  			onmousedown="select_species(evt,31,2)" x="118" y="1264"  width="12" height="12"  style ="fill:#CCCCCC;stroke:black"/> 
<rect id="Pval62"  onmousemove="ShowTooltip(evt, 'Proba: 8.07e-01 dist:0.000101  nbsubsets:31 node:62 nbunder:5 ')"   onmouseout="HideTooltip(evt)"  			onmousedown="select_species(evt,11,5)" x="120" y="822"  width="12" height="12"  style ="fill:#FFFF00;stroke:black"/> 
<rect id="Pval63"  onmousemove="ShowTooltip(evt, 'Proba: 9.08e-01 dist:0.000104  nbsubsets:30 node:63 nbunder:7 ')"   onmouseout="HideTooltip(evt)"  			onmousedown="select_species(evt,13,7)" x="120" y="863"  width="12" height="12"  style ="fill:#FFFF00;stroke:black"/> 
<rect id="Pval64"  onmousemove="ShowTooltip(evt, 'Proba: NA dist:0.000124  nbsubsets:29 node:64 nb_under:2')"   onmouseout="HideTooltip(evt)"  			onmousedown="select_species(evt,16,2)" x="121" y="964"  width="12" height="12"  style ="fill:#CCCCCC;stroke:black"/> 
<rect id="Pval65"  onmousemove="ShowTooltip(evt, 'Proba: 9.90e-01 dist:0.000141  nbsubsets:28 node:65 nbunder:8 ')"   onmouseout="HideTooltip(evt)"  			onmousedown="select_species(evt,14,8)" x="122" y="898"  width="12" height="12"  style ="fill:#FFFF00;stroke:black"/> 
<rect id="Pval66"  onmousemove="ShowTooltip(evt, 'Proba: 1.20e-01 dist:0.000195  nbsubsets:27 node:66 nbunder:3 ')"   onmouseout="HideTooltip(evt)"  			onmousedown="select_species(evt,26,3)" x="126" y="1159"  width="12" height="12"  style ="fill:#FFFF00;stroke:black"/> 
<rect id="Pval67"  onmousemove="ShowTooltip(evt, 'Proba: 7.87e-01 dist:0.000273  nbsubsets:26 node:67 nbunder:10 ')"   onmouseout="HideTooltip(evt)"  			onmousedown="select_species(evt,16,10)" x="131" y="931"  width="12" height="12"  style ="fill:#FFFF00;stroke:black"/> 
<rect id="Pval68"  onmousemove="ShowTooltip(evt, 'Proba: 9.76e-01 dist:0.000343  nbsubsets:25 node:68 nbunder:12 ')"   onmouseout="HideTooltip(evt)"  			onmousedown="select_species(evt,18,12)" x="135" y="967"  width="12" height="12"  style ="fill:#FFFF00;stroke:black"/> 
<rect id="Pval69"  onmousemove="ShowTooltip(evt, 'Proba: 3.00e-03 dist:0.000383  nbsubsets:24 node:69 nbunder:4 ')"   onmouseout="HideTooltip(evt)"  			onmousedown="select_species(evt,36,4)" x="138" y="1336"  width="12" height="12"  style ="fill:#F00000;stroke:black"/> 
<rect id="Pval70"  onmousemove="ShowTooltip(evt, 'Proba: 9.36e-01 dist:0.000519  nbsubsets:23 node:70 nbunder:13 ')"   onmouseout="HideTooltip(evt)"  			onmousedown="select_species(evt,19,13)" x="146" y="1000"  width="12" height="12"  style ="fill:#FFFF00;stroke:black"/> 
<rect id="Pval71"  onmousemove="ShowTooltip(evt, 'Proba: 5.30e-01 dist:0.000800  nbsubsets:22 node:71 nbunder:5 ')"   onmouseout="HideTooltip(evt)"  			onmousedown="select_species(evt,37,5)" x="164" y="1365"  width="12" height="12"  style ="fill:#FFFF00;stroke:black"/> 
<rect id="Pval72"  onmousemove="ShowTooltip(evt, 'Proba: 7.81e-01 dist:0.000833  nbsubsets:21 node:72 nbunder:14 ')"   onmouseout="HideTooltip(evt)"  			onmousedown="select_species(evt,20,14)" x="166" y="1027"  width="12" height="12"  style ="fill:#FFFF00;stroke:black"/> 
<rect id="Pval73"  onmousemove="ShowTooltip(evt, 'Proba: NA dist:0.000859  nbsubsets:20 node:73 nb_under:2')"   onmouseout="HideTooltip(evt)"  			onmousedown="select_species(evt,39,2)" x="167" y="1424"  width="12" height="12"  style ="fill:#CCCCCC;stroke:black"/> 
<rect id="Pval74"  onmousemove="ShowTooltip(evt, 'Proba: 9.46e-01 dist:0.000966  nbsubsets:19 node:74 nbunder:15 ')"   onmouseout="HideTooltip(evt)"  			onmousedown="select_species(evt,20,15)" x="174" y="900"  width="12" height="12"  style ="fill:#FFFF00;stroke:black"/> 
<rect id="Pval75"  onmousemove="ShowTooltip(evt, 'Proba: 9.80e-01 dist:0.001021  nbsubsets:18 node:75 nbunder:17 ')"   onmouseout="HideTooltip(evt)"  			onmousedown="select_species(evt,22,17)" x="178" y="992"  width="12" height="12"  style ="fill:#FFFF00;stroke:black"/> 
<rect id="Pval76"  onmousemove="ShowTooltip(evt, 'Proba: NA dist:0.001042  nbsubsets:17 node:76 nb_under:2')"   onmouseout="HideTooltip(evt)"  			onmousedown="select_species(evt,46,2)" x="179" y="1564"  width="12" height="12"  style ="fill:#CCCCCC;stroke:black"/> 
<rect id="Pval77"  onmousemove="ShowTooltip(evt, 'Proba: 9.94e-01 dist:0.001131  nbsubsets:16 node:77 nbunder:18 ')"   onmouseout="HideTooltip(evt)"  			onmousedown="select_species(evt,23,18)" x="184" y="1053"  width="12" height="12"  style ="fill:#FFFF00;stroke:black"/> 
<rect id="Pval78"  onmousemove="ShowTooltip(evt, 'Proba: 1.67e-01 dist:0.001275  nbsubsets:15 node:78 nbunder:4 ')"   onmouseout="HideTooltip(evt)"  			onmousedown="select_species(evt,27,4)" x="193" y="1176"  width="12" height="12"  style ="fill:#FFFF00;stroke:black"/> 
<rect id="Pval79"  onmousemove="ShowTooltip(evt, 'Proba: NA dist:0.001360  nbsubsets:14 node:79 nb_under:22')"   onmouseout="HideTooltip(evt)"  			onmousedown="select_species(evt,27,22)" x="199" y="1114"  width="12" height="12"  style ="fill:#FFFF00;stroke:black"/> 
<rect id="Pval80"  onmousemove="ShowTooltip(evt, 'Proba: NA dist:0.001829  nbsubsets:13 node:80 nb_under:23')"   onmouseout="HideTooltip(evt)"  			onmousedown="select_species(evt,28,23)" x="228" y="1164"  width="12" height="12"  style ="fill:#FFFF00;stroke:black"/> 
<rect id="Pval81"  onmousemove="ShowTooltip(evt, 'Proba: NA dist:0.001837  nbsubsets:12 node:81 nb_under:24')"   onmouseout="HideTooltip(evt)"  			onmousedown="select_species(evt,29,24)" x="229" y="1199"  width="12" height="12"  style ="fill:#FFFF00;stroke:black"/> 
<rect id="Pval82"  onmousemove="ShowTooltip(evt, 'Proba: NA dist:0.002631  nbsubsets:11 node:82 nb_under:26')"   onmouseout="HideTooltip(evt)"  			onmousedown="select_species(evt,31,26)" x="278" y="1231"  width="12" height="12"  style ="fill:#FFFF00;stroke:black"/> 
<rect id="Pval83"  onmousemove="ShowTooltip(evt, 'Proba: NA dist:0.007394  nbsubsets:10 node:83 nb_under:27')"   onmouseout="HideTooltip(evt)"  			onmousedown="select_species(evt,32,27)" x="577" y="1262"  width="12" height="12"  style ="fill:#FFFF00;stroke:black"/> 
<rect id="Pval84"  onmousemove="ShowTooltip(evt, 'Proba: NA dist:0.008239  nbsubsets:9 node:84 nb_under:33')"   onmouseout="HideTooltip(evt)"  			onmousedown="select_species(evt,32,33)" x="630" y="998"  width="12" height="12"  style ="fill:#FFFF00;stroke:black"/> 
<rect id="Pval85"  onmousemove="ShowTooltip(evt, 'Proba: NA dist:0.009056  nbsubsets:8 node:85 nb_under:38')"   onmouseout="HideTooltip(evt)"  			onmousedown="select_species(evt,37,38)" x="681" y="1181"  width="12" height="12"  style ="fill:#FFFF00;stroke:black"/> 
<rect id="Pval86"  onmousemove="ShowTooltip(evt, 'Proba: NA dist:0.015891  nbsubsets:7 node:86 nb_under:40')"   onmouseout="HideTooltip(evt)"  			onmousedown="select_species(evt,39,40)" x="1110" y="1302"  width="12" height="12"  style ="fill:#FFFF00;stroke:black"/> 
<rect id="Pval87"  onmousemove="ShowTooltip(evt, 'Proba: NA dist:0.016506  nbsubsets:6 node:87 nb_under:41')"   onmouseout="HideTooltip(evt)"  			onmousedown="select_species(evt,40,41)" x="1148" y="1378"  width="12" height="12"  style ="fill:#FFFF00;stroke:black"/> 
<rect id="Pval88"  onmousemove="ShowTooltip(evt, 'Proba: NA dist:0.016660  nbsubsets:5 node:88 nb_under:42')"   onmouseout="HideTooltip(evt)"  			onmousedown="select_species(evt,41,42)" x="1158" y="1426"  width="12" height="12"  style ="fill:#FFFF00;stroke:black"/> 
<rect id="Pval89"  onmousemove="ShowTooltip(evt, 'Proba: NA dist:0.016780  nbsubsets:4 node:89 nb_under:43')"   onmouseout="HideTooltip(evt)"  			onmousedown="select_species(evt,42,43)" x="1165" y="1460"  width="12" height="12"  style ="fill:#FFFF00;stroke:black"/> 
<rect id="Pval90"  onmousemove="ShowTooltip(evt, 'Proba: NA dist:0.016796  nbsubsets:3 node:90 nb_under:44')"   onmouseout="HideTooltip(evt)"  			onmousedown="select_species(evt,43,44)" x="1166" y="1487"  width="12" height="12"  style ="fill:#FFFF00;stroke:black"/> 
<rect id="Pval91"  onmousemove="ShowTooltip(evt, 'Proba: NA dist:0.017168  nbsubsets:2 node:91 nb_under:45')"   onmouseout="HideTooltip(evt)"  			onmousedown="select_species(evt,44,45)" x="1190" y="1510"  width="12" height="12"  style ="fill:#FFFF00;stroke:black"/> 
<rect id="Pval92"  onmousemove="ShowTooltip(evt, 'Proba: NA dist:0.017371  nbsubsets:1 node:92 nb_under:47')"   onmouseout="HideTooltip(evt)"  			onmousedown="select_species(evt,46,47)" x="1202" y="1537"  width="12" height="12"  style ="fill:#FFFF00;stroke:black"/> 
<rect class="tooltip_bg" id="tooltip_bg"
      x="0" y="0" rx="4" ry="4"
      width="55" height="17" visibility="hidden"/>
 <text class="tooltip" id="tooltip"
     x="0" y="0" visibility="hidden">Tooltip</text>
</svg>
