<svg xmlns="http://www.w3.org/2000/svg"  width="1952" height="1000" >
  <text x="5" y="50"  id="specie_0"  style="color:black;font-size :15;font-family = monospace;" >AB14-VUB </text>
  <text x="5" y="170"  id="specie_6"  style="color:black;font-size :15;font-family = monospace;" >AB16-VUB </text>
  <text x="5" y="610"  id="specie_28"  style="color:black;font-size :15;font-family = monospace;" >AB167-VUB </text>
  <text x="5" y="710"  id="specie_33"  style="color:black;font-size :15;font-family = monospace;" >AB169-VUB </text>
  <text x="5" y="530"  id="specie_24"  style="color:black;font-size :15;font-family = monospace;" >AB171-VUB </text>
  <text x="5" y="550"  id="specie_25"  style="color:black;font-size :15;font-family = monospace;" >AB172-VUB </text>
  <text x="5" y="190"  id="specie_7"  style="color:black;font-size :15;font-family = monospace;" >AB173-VUB </text>
  <text x="5" y="350"  id="specie_15"  style="color:black;font-size :15;font-family = monospace;" >AB175-VUB </text>
  <text x="5" y="150"  id="specie_5"  style="color:black;font-size :15;font-family = monospace;" >AB176-VUB </text>
  <text x="5" y="950"  id="specie_45"  style="color:black;font-size :15;font-family = monospace;" >AB177-VUB </text>
  <text x="5" y="930"  id="specie_44"  style="color:black;font-size :15;font-family = monospace;" >AB179-VUB </text>
  <text x="5" y="210"  id="specie_8"  style="color:black;font-size :15;font-family = monospace;" >AB180-VUB </text>
  <text x="5" y="590"  id="specie_27"  style="color:black;font-size :15;font-family = monospace;" >AB181-VUB </text>
  <text x="5" y="270"  id="specie_11"  style="color:black;font-size :15;font-family = monospace;" >AB183-VUB </text>
  <text x="5" y="970"  id="specie_46"  style="color:black;font-size :15;font-family = monospace;" >AB186-VUB </text>
  <text x="5" y="90"  id="specie_2"  style="color:black;font-size :15;font-family = monospace;" >AB187-VUB </text>
  <text x="5" y="70"  id="specie_1"  style="color:black;font-size :15;font-family = monospace;" >AB188-VUB </text>
  <text x="5" y="650"  id="specie_30"  style="color:black;font-size :15;font-family = monospace;" >AB189-VUB </text>
  <text x="5" y="390"  id="specie_17"  style="color:black;font-size :15;font-family = monospace;" >AB193-VUB </text>
  <text x="5" y="450"  id="specie_20"  style="color:black;font-size :15;font-family = monospace;" >AB194-VUB </text>
  <text x="5" y="110"  id="specie_3"  style="color:black;font-size :15;font-family = monospace;" >AB20-VUB </text>
  <text x="5" y="810"  id="specie_38"  style="color:black;font-size :15;font-family = monospace;" >AB21-VUB </text>
  <text x="5" y="370"  id="specie_16"  style="color:black;font-size :15;font-family = monospace;" >AB212-VUB </text>
  <text x="5" y="410"  id="specie_18"  style="color:black;font-size :15;font-family = monospace;" >AB213-VUB </text>
  <text x="5" y="230"  id="specie_9"  style="color:black;font-size :15;font-family = monospace;" >AB214-VUB </text>
  <text x="5" y="470"  id="specie_21"  style="color:black;font-size :15;font-family = monospace;" >AB216-VUB </text>
  <text x="5" y="290"  id="specie_12"  style="color:black;font-size :15;font-family = monospace;" >AB217-VUB </text>
  <text x="5" y="490"  id="specie_22"  style="color:black;font-size :15;font-family = monospace;" >AB219-VUB </text>
  <text x="5" y="510"  id="specie_23"  style="color:black;font-size :15;font-family = monospace;" >AB220-VUB </text>
  <text x="5" y="670"  id="specie_31"  style="color:black;font-size :15;font-family = monospace;" >AB222-VUB </text>
  <text x="5" y="310"  id="specie_13"  style="color:black;font-size :15;font-family = monospace;" >AB224-VUB </text>
  <text x="5" y="330"  id="specie_14"  style="color:black;font-size :15;font-family = monospace;" >AB226-VUB </text>
  <text x="5" y="730"  id="specie_34"  style="color:black;font-size :15;font-family = monospace;" >AB227-VUB </text>
  <text x="5" y="750"  id="specie_35"  style="color:black;font-size :15;font-family = monospace;" >AB229-VUB </text>
  <text x="5" y="690"  id="specie_32"  style="color:black;font-size :15;font-family = monospace;" >AB231-VUB </text>
  <text x="5" y="770"  id="specie_36"  style="color:black;font-size :15;font-family = monospace;" >AB232-VUB </text>
  <text x="5" y="250"  id="specie_10"  style="color:black;font-size :15;font-family = monospace;" >AB233-VUB </text>
  <text x="5" y="570"  id="specie_26"  style="color:black;font-size :15;font-family = monospace;" >AB3-VUB </text>
  <text x="5" y="870"  id="specie_41"  style="color:black;font-size :15;font-family = monospace;" >AB32-VUB </text>
  <text x="5" y="430"  id="specie_19"  style="color:black;font-size :15;font-family = monospace;" >AB36-VUB </text>
  <text x="5" y="630"  id="specie_29"  style="color:black;font-size :15;font-family = monospace;" >AB39-VUB </text>
  <text x="5" y="830"  id="specie_39"  style="color:black;font-size :15;font-family = monospace;" >AB40-VUB </text>
  <text x="5" y="790"  id="specie_37"  style="color:black;font-size :15;font-family = monospace;" >AB5075-VUB </text>
  <text x="5" y="130"  id="specie_4"  style="color:black;font-size :15;font-family = monospace;" >AB9-VUB </text>
  <text x="5" y="850"  id="specie_40"  style="color:black;font-size :15;font-family = monospace;" >ATCC17978-VUB </text>
  <text x="5" y="910"  id="specie_43"  style="color:black;font-size :15;font-family = monospace;" >ATCC19606-VUB </text>
  <text x="5" y="890"  id="specie_42"  style="color:black;font-size :15;font-family = monospace;" >DSM30011-VUB </text>
<text x="10" y="10" style="color:black;font-size :12;font-family = monospace;">Nb subsets/asap score</text>
<text x="10" y="25" style="color:black;font-size :12;font-family = monospace;">Rank</text>
<text x="126" y="10"   style="color:black;font-size :12px;font-family = monospace;" >[28/15.0] </text>
<text x="126" y="22"   style="color:black;font-size :10px;font-family = monospace;" >[6] </text>
<rect x="126" y="30" width="30" height="120" style="fill:#666699;stroke:black;" />
  <text x="128" y="50">6 </text><rect x="126" y="150" width="30" height="20" style="fill:#39CCCC;stroke:black;" />
<rect x="126" y="590" width="30" height="20" style="fill:#F012BE;stroke:black;" />
<rect x="126" y="690" width="30" height="20" style="fill:#FF4136;stroke:black;" />
<rect x="126" y="510" width="30" height="40" style="fill:#FFDC00;stroke:black;" />
  <text x="128" y="530">2 </text><rect x="126" y="550" width="30" height="20" style="fill:#FF4136;stroke:black;" />
<rect x="126" y="170" width="30" height="160" style="fill:#2ECC40;stroke:black;" />
  <text x="128" y="190">8 </text><rect x="126" y="330" width="30" height="40" style="fill:#EFEFEF;stroke:black;" />
  <text x="128" y="350">2 </text><rect x="126" y="930" width="30" height="20" style="fill:#7FDBFF;stroke:black;" />
<rect x="126" y="910" width="30" height="20" style="fill:#0074D9;stroke:black;" />
<rect x="126" y="570" width="30" height="20" style="fill:#af1661;stroke:black;" />
<rect x="126" y="950" width="30" height="20" style="fill:#39CCCC;stroke:black;" />
<rect x="126" y="630" width="30" height="40" style="fill:#EFEFEF;stroke:black;" />
  <text x="128" y="650">2 </text><rect x="126" y="370" width="30" height="40" style="fill:#DDDDDD;stroke:black;" />
  <text x="128" y="390">2 </text><rect x="126" y="430" width="30" height="20" style="fill:#7FDBFF;stroke:black;" />
<rect x="126" y="790" width="30" height="20" style="fill:#F012BE;stroke:black;" />
<rect x="126" y="450" width="30" height="40" style="fill:#3D9970;stroke:black;" />
  <text x="128" y="470">2 </text><rect x="126" y="490" width="30" height="20" style="fill:#01FF70;stroke:black;" />
<rect x="126" y="710" width="30" height="60" style="fill:#01FF70;stroke:black;" />
  <text x="128" y="730">3 </text><rect x="126" y="670" width="30" height="20" style="fill:#DDDDDD;stroke:black;" />
<rect x="126" y="850" width="30" height="20" style="fill:#AAAAAA;stroke:black;" />
<rect x="126" y="410" width="30" height="20" style="fill:#0074D9;stroke:black;" />
<rect x="126" y="610" width="30" height="20" style="fill:#B10DC9;stroke:black;" />
<rect x="126" y="810" width="30" height="20" style="fill:#B10DC9;stroke:black;" />
<rect x="126" y="770" width="30" height="20" style="fill:#af1661;stroke:black;" />
<rect x="126" y="830" width="30" height="20" style="fill:#EFEFEF;stroke:black;" />
<rect x="126" y="890" width="30" height="20" style="fill:#666699;stroke:black;" />
<rect x="126" y="870" width="30" height="20" style="fill:#DDDDDD;stroke:black;" />
<text x="176" y="10"   style="color:black;font-size :12px;font-family = monospace;" >[27/8.5] </text>
<text x="176" y="22"   style="color:black;font-size :10px;font-family = monospace;" >[3] </text>
<rect x="176" y="30" width="30" height="120" style="fill:#666699;stroke:black;" />
  <text x="178" y="50">6 </text><rect x="176" y="150" width="30" height="20" style="fill:#39CCCC;stroke:black;" />
<rect x="176" y="590" width="30" height="20" style="fill:#F012BE;stroke:black;" />
<rect x="176" y="690" width="30" height="20" style="fill:#FF4136;stroke:black;" />
<rect x="176" y="510" width="30" height="60" style="fill:#FFDC00;stroke:black;" />
  <text x="178" y="530">3 </text><rect x="176" y="170" width="30" height="160" style="fill:#2ECC40;stroke:black;" />
  <text x="178" y="190">8 </text><rect x="176" y="330" width="30" height="40" style="fill:#EFEFEF;stroke:black;" />
  <text x="178" y="350">2 </text><rect x="176" y="930" width="30" height="20" style="fill:#7FDBFF;stroke:black;" />
<rect x="176" y="910" width="30" height="20" style="fill:#0074D9;stroke:black;" />
<rect x="176" y="570" width="30" height="20" style="fill:#af1661;stroke:black;" />
<rect x="176" y="950" width="30" height="20" style="fill:#39CCCC;stroke:black;" />
<rect x="176" y="630" width="30" height="40" style="fill:#EFEFEF;stroke:black;" />
  <text x="178" y="650">2 </text><rect x="176" y="370" width="30" height="40" style="fill:#DDDDDD;stroke:black;" />
  <text x="178" y="390">2 </text><rect x="176" y="430" width="30" height="20" style="fill:#7FDBFF;stroke:black;" />
<rect x="176" y="790" width="30" height="20" style="fill:#F012BE;stroke:black;" />
<rect x="176" y="450" width="30" height="40" style="fill:#3D9970;stroke:black;" />
  <text x="178" y="470">2 </text><rect x="176" y="490" width="30" height="20" style="fill:#01FF70;stroke:black;" />
<rect x="176" y="710" width="30" height="60" style="fill:#01FF70;stroke:black;" />
  <text x="178" y="730">3 </text><rect x="176" y="670" width="30" height="20" style="fill:#DDDDDD;stroke:black;" />
<rect x="176" y="850" width="30" height="20" style="fill:#AAAAAA;stroke:black;" />
<rect x="176" y="410" width="30" height="20" style="fill:#0074D9;stroke:black;" />
<rect x="176" y="610" width="30" height="20" style="fill:#B10DC9;stroke:black;" />
<rect x="176" y="810" width="30" height="20" style="fill:#B10DC9;stroke:black;" />
<rect x="176" y="770" width="30" height="20" style="fill:#af1661;stroke:black;" />
<rect x="176" y="830" width="30" height="20" style="fill:#EFEFEF;stroke:black;" />
<rect x="176" y="890" width="30" height="20" style="fill:#666699;stroke:black;" />
<rect x="176" y="870" width="30" height="20" style="fill:#DDDDDD;stroke:black;" />
<text x="226" y="10"   style="color:black;font-size :12px;font-family = monospace;" >[25/15.5] </text>
<text x="226" y="22"   style="color:black;font-size :10px;font-family = monospace;" >[7] </text>
<rect x="226" y="30" width="30" height="120" style="fill:#666699;stroke:black;" />
  <text x="228" y="50">6 </text><rect x="226" y="150" width="30" height="20" style="fill:#39CCCC;stroke:black;" />
<rect x="226" y="590" width="30" height="20" style="fill:#F012BE;stroke:black;" />
<rect x="226" y="690" width="30" height="20" style="fill:#FF4136;stroke:black;" />
<rect x="226" y="710" width="30" height="60" style="fill:#01FF70;stroke:black;" />
  <text x="228" y="730">3 </text><rect x="226" y="510" width="30" height="60" style="fill:#FFDC00;stroke:black;" />
  <text x="228" y="530">3 </text><rect x="226" y="170" width="30" height="240" style="fill:#2ECC40;stroke:black;" />
  <text x="228" y="190">12 </text><rect x="226" y="930" width="30" height="20" style="fill:#7FDBFF;stroke:black;" />
<rect x="226" y="910" width="30" height="20" style="fill:#0074D9;stroke:black;" />
<rect x="226" y="570" width="30" height="20" style="fill:#af1661;stroke:black;" />
<rect x="226" y="950" width="30" height="20" style="fill:#39CCCC;stroke:black;" />
<rect x="226" y="630" width="30" height="40" style="fill:#EFEFEF;stroke:black;" />
  <text x="228" y="650">2 </text><rect x="226" y="430" width="30" height="20" style="fill:#7FDBFF;stroke:black;" />
<rect x="226" y="790" width="30" height="20" style="fill:#F012BE;stroke:black;" />
<rect x="226" y="450" width="30" height="40" style="fill:#3D9970;stroke:black;" />
  <text x="228" y="470">2 </text><rect x="226" y="490" width="30" height="20" style="fill:#01FF70;stroke:black;" />
<rect x="226" y="670" width="30" height="20" style="fill:#DDDDDD;stroke:black;" />
<rect x="226" y="850" width="30" height="20" style="fill:#AAAAAA;stroke:black;" />
<rect x="226" y="410" width="30" height="20" style="fill:#0074D9;stroke:black;" />
<rect x="226" y="610" width="30" height="20" style="fill:#B10DC9;stroke:black;" />
<rect x="226" y="810" width="30" height="20" style="fill:#B10DC9;stroke:black;" />
<rect x="226" y="770" width="30" height="20" style="fill:#af1661;stroke:black;" />
<rect x="226" y="830" width="30" height="20" style="fill:#EFEFEF;stroke:black;" />
<rect x="226" y="890" width="30" height="20" style="fill:#666699;stroke:black;" />
<rect x="226" y="870" width="30" height="20" style="fill:#DDDDDD;stroke:black;" />
<text x="276" y="10"   style="color:black;font-size :12px;font-family = monospace;" >[24/12.5] </text>
<text x="276" y="22"   style="color:black;font-size :10px;font-family = monospace;" >[4] </text>
<rect x="276" y="30" width="30" height="120" style="fill:#666699;stroke:black;" />
  <text x="278" y="50">6 </text><rect x="276" y="150" width="30" height="20" style="fill:#39CCCC;stroke:black;" />
<rect x="276" y="590" width="30" height="20" style="fill:#F012BE;stroke:black;" />
<rect x="276" y="690" width="30" height="80" style="fill:#01FF70;stroke:black;" />
  <text x="278" y="710">4 </text><rect x="276" y="510" width="30" height="60" style="fill:#FFDC00;stroke:black;" />
  <text x="278" y="530">3 </text><rect x="276" y="170" width="30" height="240" style="fill:#2ECC40;stroke:black;" />
  <text x="278" y="190">12 </text><rect x="276" y="410" width="30" height="20" style="fill:#0074D9;stroke:black;" />
<rect x="276" y="930" width="30" height="20" style="fill:#7FDBFF;stroke:black;" />
<rect x="276" y="910" width="30" height="20" style="fill:#0074D9;stroke:black;" />
<rect x="276" y="570" width="30" height="20" style="fill:#af1661;stroke:black;" />
<rect x="276" y="950" width="30" height="20" style="fill:#39CCCC;stroke:black;" />
<rect x="276" y="630" width="30" height="40" style="fill:#EFEFEF;stroke:black;" />
  <text x="278" y="650">2 </text><rect x="276" y="430" width="30" height="20" style="fill:#7FDBFF;stroke:black;" />
<rect x="276" y="790" width="30" height="20" style="fill:#F012BE;stroke:black;" />
<rect x="276" y="450" width="30" height="40" style="fill:#3D9970;stroke:black;" />
  <text x="278" y="470">2 </text><rect x="276" y="490" width="30" height="20" style="fill:#01FF70;stroke:black;" />
<rect x="276" y="670" width="30" height="20" style="fill:#DDDDDD;stroke:black;" />
<rect x="276" y="850" width="30" height="20" style="fill:#AAAAAA;stroke:black;" />
<rect x="276" y="610" width="30" height="20" style="fill:#B10DC9;stroke:black;" />
<rect x="276" y="810" width="30" height="20" style="fill:#B10DC9;stroke:black;" />
<rect x="276" y="770" width="30" height="20" style="fill:#af1661;stroke:black;" />
<rect x="276" y="830" width="30" height="20" style="fill:#EFEFEF;stroke:black;" />
<rect x="276" y="890" width="30" height="20" style="fill:#666699;stroke:black;" />
<rect x="276" y="870" width="30" height="20" style="fill:#DDDDDD;stroke:black;" />
<text x="326" y="10"   style="color:black;font-size :12px;font-family = monospace;" >[23/5.5] </text>
<text x="326" y="22"   style="color:black;font-size :10px;font-family = monospace;" >[1] </text>
<rect x="326" y="30" width="30" height="120" style="fill:#666699;stroke:black;" />
  <text x="328" y="50">6 </text><rect x="326" y="150" width="30" height="20" style="fill:#39CCCC;stroke:black;" />
<rect x="326" y="590" width="30" height="20" style="fill:#F012BE;stroke:black;" />
<rect x="326" y="690" width="30" height="80" style="fill:#01FF70;stroke:black;" />
  <text x="328" y="710">4 </text><rect x="326" y="770" width="30" height="20" style="fill:#af1661;stroke:black;" />
<rect x="326" y="510" width="30" height="60" style="fill:#FFDC00;stroke:black;" />
  <text x="328" y="530">3 </text><rect x="326" y="170" width="30" height="260" style="fill:#2ECC40;stroke:black;" />
  <text x="328" y="190">13 </text><rect x="326" y="930" width="30" height="20" style="fill:#7FDBFF;stroke:black;" />
<rect x="326" y="910" width="30" height="20" style="fill:#0074D9;stroke:black;" />
<rect x="326" y="570" width="30" height="20" style="fill:#af1661;stroke:black;" />
<rect x="326" y="950" width="30" height="20" style="fill:#39CCCC;stroke:black;" />
<rect x="326" y="630" width="30" height="40" style="fill:#EFEFEF;stroke:black;" />
  <text x="328" y="650">2 </text><rect x="326" y="430" width="30" height="20" style="fill:#7FDBFF;stroke:black;" />
<rect x="326" y="790" width="30" height="20" style="fill:#F012BE;stroke:black;" />
<rect x="326" y="450" width="30" height="40" style="fill:#3D9970;stroke:black;" />
  <text x="328" y="470">2 </text><rect x="326" y="490" width="30" height="20" style="fill:#01FF70;stroke:black;" />
<rect x="326" y="670" width="30" height="20" style="fill:#DDDDDD;stroke:black;" />
<rect x="326" y="850" width="30" height="20" style="fill:#AAAAAA;stroke:black;" />
<rect x="326" y="610" width="30" height="20" style="fill:#B10DC9;stroke:black;" />
<rect x="326" y="810" width="30" height="20" style="fill:#B10DC9;stroke:black;" />
<rect x="326" y="830" width="30" height="20" style="fill:#EFEFEF;stroke:black;" />
<rect x="326" y="890" width="30" height="20" style="fill:#666699;stroke:black;" />
<rect x="326" y="870" width="30" height="20" style="fill:#DDDDDD;stroke:black;" />
<text x="376" y="10"   style="color:black;font-size :12px;font-family = monospace;" >[22/6.5] </text>
<text x="376" y="22"   style="color:black;font-size :10px;font-family = monospace;" >[2] </text>
<rect x="376" y="30" width="30" height="120" style="fill:#666699;stroke:black;" />
  <text x="378" y="50">6 </text><rect x="376" y="150" width="30" height="20" style="fill:#39CCCC;stroke:black;" />
<rect x="376" y="590" width="30" height="20" style="fill:#F012BE;stroke:black;" />
<rect x="376" y="690" width="30" height="100" style="fill:#01FF70;stroke:black;" />
  <text x="378" y="710">5 </text><rect x="376" y="510" width="30" height="60" style="fill:#FFDC00;stroke:black;" />
  <text x="378" y="530">3 </text><rect x="376" y="170" width="30" height="260" style="fill:#2ECC40;stroke:black;" />
  <text x="378" y="190">13 </text><rect x="376" y="430" width="30" height="20" style="fill:#7FDBFF;stroke:black;" />
<rect x="376" y="930" width="30" height="20" style="fill:#7FDBFF;stroke:black;" />
<rect x="376" y="910" width="30" height="20" style="fill:#0074D9;stroke:black;" />
<rect x="376" y="570" width="30" height="20" style="fill:#af1661;stroke:black;" />
<rect x="376" y="950" width="30" height="20" style="fill:#39CCCC;stroke:black;" />
<rect x="376" y="630" width="30" height="40" style="fill:#EFEFEF;stroke:black;" />
  <text x="378" y="650">2 </text><rect x="376" y="790" width="30" height="20" style="fill:#F012BE;stroke:black;" />
<rect x="376" y="450" width="30" height="40" style="fill:#3D9970;stroke:black;" />
  <text x="378" y="470">2 </text><rect x="376" y="490" width="30" height="20" style="fill:#01FF70;stroke:black;" />
<rect x="376" y="670" width="30" height="20" style="fill:#DDDDDD;stroke:black;" />
<rect x="376" y="850" width="30" height="20" style="fill:#AAAAAA;stroke:black;" />
<rect x="376" y="610" width="30" height="20" style="fill:#B10DC9;stroke:black;" />
<rect x="376" y="810" width="30" height="20" style="fill:#B10DC9;stroke:black;" />
<rect x="376" y="830" width="30" height="20" style="fill:#EFEFEF;stroke:black;" />
<rect x="376" y="890" width="30" height="20" style="fill:#666699;stroke:black;" />
<rect x="376" y="870" width="30" height="20" style="fill:#DDDDDD;stroke:black;" />
<text x="426" y="10"   style="color:black;font-size :12px;font-family = monospace;" >[20/13.5] </text>
<text x="426" y="22"   style="color:black;font-size :10px;font-family = monospace;" >[5] </text>
<rect x="426" y="30" width="30" height="120" style="fill:#666699;stroke:black;" />
  <text x="428" y="50">6 </text><rect x="426" y="150" width="30" height="20" style="fill:#39CCCC;stroke:black;" />
<rect x="426" y="170" width="30" height="280" style="fill:#2ECC40;stroke:black;" />
  <text x="428" y="190">14 </text><rect x="426" y="590" width="30" height="20" style="fill:#F012BE;stroke:black;" />
<rect x="426" y="690" width="30" height="100" style="fill:#01FF70;stroke:black;" />
  <text x="428" y="710">5 </text><rect x="426" y="510" width="30" height="60" style="fill:#FFDC00;stroke:black;" />
  <text x="428" y="530">3 </text><rect x="426" y="930" width="30" height="20" style="fill:#7FDBFF;stroke:black;" />
<rect x="426" y="910" width="30" height="20" style="fill:#0074D9;stroke:black;" />
<rect x="426" y="570" width="30" height="20" style="fill:#af1661;stroke:black;" />
<rect x="426" y="950" width="30" height="20" style="fill:#39CCCC;stroke:black;" />
<rect x="426" y="630" width="30" height="40" style="fill:#EFEFEF;stroke:black;" />
  <text x="428" y="650">2 </text><rect x="426" y="790" width="30" height="40" style="fill:#F012BE;stroke:black;" />
  <text x="428" y="810">2 </text><rect x="426" y="450" width="30" height="40" style="fill:#3D9970;stroke:black;" />
  <text x="428" y="470">2 </text><rect x="426" y="490" width="30" height="20" style="fill:#01FF70;stroke:black;" />
<rect x="426" y="670" width="30" height="20" style="fill:#DDDDDD;stroke:black;" />
<rect x="426" y="850" width="30" height="20" style="fill:#AAAAAA;stroke:black;" />
<rect x="426" y="610" width="30" height="20" style="fill:#B10DC9;stroke:black;" />
<rect x="426" y="830" width="30" height="20" style="fill:#EFEFEF;stroke:black;" />
<rect x="426" y="890" width="30" height="20" style="fill:#666699;stroke:black;" />
<rect x="426" y="870" width="30" height="20" style="fill:#DDDDDD;stroke:black;" />
<text x="476" y="10"   style="color:black;font-size :12px;font-family = monospace;" >[19/15.5] </text>
<text x="476" y="22"   style="color:black;font-size :10px;font-family = monospace;" >[8] </text>
<rect x="476" y="30" width="30" height="120" style="fill:#666699;stroke:black;" />
  <text x="478" y="50">6 </text><rect x="476" y="150" width="30" height="300" style="fill:#2ECC40;stroke:black;" />
  <text x="478" y="170">15 </text><rect x="476" y="450" width="30" height="40" style="fill:#3D9970;stroke:black;" />
  <text x="478" y="470">2 </text><rect x="476" y="590" width="30" height="20" style="fill:#F012BE;stroke:black;" />
<rect x="476" y="690" width="30" height="100" style="fill:#01FF70;stroke:black;" />
  <text x="478" y="710">5 </text><rect x="476" y="510" width="30" height="60" style="fill:#FFDC00;stroke:black;" />
  <text x="478" y="530">3 </text><rect x="476" y="930" width="30" height="20" style="fill:#7FDBFF;stroke:black;" />
<rect x="476" y="910" width="30" height="20" style="fill:#0074D9;stroke:black;" />
<rect x="476" y="570" width="30" height="20" style="fill:#af1661;stroke:black;" />
<rect x="476" y="950" width="30" height="20" style="fill:#39CCCC;stroke:black;" />
<rect x="476" y="630" width="30" height="40" style="fill:#EFEFEF;stroke:black;" />
  <text x="478" y="650">2 </text><rect x="476" y="790" width="30" height="40" style="fill:#F012BE;stroke:black;" />
  <text x="478" y="810">2 </text><rect x="476" y="490" width="30" height="20" style="fill:#01FF70;stroke:black;" />
<rect x="476" y="670" width="30" height="20" style="fill:#DDDDDD;stroke:black;" />
<rect x="476" y="850" width="30" height="20" style="fill:#AAAAAA;stroke:black;" />
<rect x="476" y="610" width="30" height="20" style="fill:#B10DC9;stroke:black;" />
<rect x="476" y="830" width="30" height="20" style="fill:#EFEFEF;stroke:black;" />
<rect x="476" y="890" width="30" height="20" style="fill:#666699;stroke:black;" />
<rect x="476" y="870" width="30" height="20" style="fill:#DDDDDD;stroke:black;" />
<text x="526" y="10"   style="color:black;font-size :12px;font-family = monospace;" >[16/16.0] </text>
<text x="526" y="22"   style="color:black;font-size :10px;font-family = monospace;" >[9] </text>
<rect x="526" y="30" width="30" height="120" style="fill:#666699;stroke:black;" />
  <text x="528" y="50">6 </text><rect x="526" y="150" width="30" height="360" style="fill:#2ECC40;stroke:black;" />
  <text x="528" y="170">18 </text><rect x="526" y="590" width="30" height="20" style="fill:#F012BE;stroke:black;" />
<rect x="526" y="690" width="30" height="100" style="fill:#01FF70;stroke:black;" />
  <text x="528" y="710">5 </text><rect x="526" y="510" width="30" height="60" style="fill:#FFDC00;stroke:black;" />
  <text x="528" y="530">3 </text><rect x="526" y="570" width="30" height="20" style="fill:#af1661;stroke:black;" />
<rect x="526" y="930" width="30" height="40" style="fill:#7FDBFF;stroke:black;" />
  <text x="528" y="950">2 </text><rect x="526" y="910" width="30" height="20" style="fill:#0074D9;stroke:black;" />
<rect x="526" y="630" width="30" height="40" style="fill:#EFEFEF;stroke:black;" />
  <text x="528" y="650">2 </text><rect x="526" y="790" width="30" height="40" style="fill:#F012BE;stroke:black;" />
  <text x="528" y="810">2 </text><rect x="526" y="670" width="30" height="20" style="fill:#DDDDDD;stroke:black;" />
<rect x="526" y="850" width="30" height="20" style="fill:#AAAAAA;stroke:black;" />
<rect x="526" y="610" width="30" height="20" style="fill:#B10DC9;stroke:black;" />
<rect x="526" y="830" width="30" height="20" style="fill:#EFEFEF;stroke:black;" />
<rect x="526" y="890" width="30" height="20" style="fill:#666699;stroke:black;" />
<rect x="526" y="870" width="30" height="20" style="fill:#DDDDDD;stroke:black;" />
<text x="576" y="10"   style="color:black;font-size :12px;font-family = monospace;" >[11/16.0] </text>
<text x="576" y="22"   style="color:black;font-size :10px;font-family = monospace;" >[10] </text>
<rect x="576" y="30" width="30" height="120" style="fill:#666699;stroke:black;" />
  <text x="578" y="50">6 </text><rect x="576" y="150" width="30" height="520" style="fill:#2ECC40;stroke:black;" />
  <text x="578" y="170">26 </text><rect x="576" y="670" width="30" height="20" style="fill:#DDDDDD;stroke:black;" />
<rect x="576" y="690" width="30" height="100" style="fill:#01FF70;stroke:black;" />
  <text x="578" y="710">5 </text><rect x="576" y="930" width="30" height="40" style="fill:#7FDBFF;stroke:black;" />
  <text x="578" y="950">2 </text><rect x="576" y="910" width="30" height="20" style="fill:#0074D9;stroke:black;" />
<rect x="576" y="790" width="30" height="40" style="fill:#F012BE;stroke:black;" />
  <text x="578" y="810">2 </text><rect x="576" y="850" width="30" height="20" style="fill:#AAAAAA;stroke:black;" />
<rect x="576" y="830" width="30" height="20" style="fill:#EFEFEF;stroke:black;" />
<rect x="576" y="890" width="30" height="20" style="fill:#666699;stroke:black;" />
<rect x="576" y="870" width="30" height="20" style="fill:#DDDDDD;stroke:black;" />
 <line x1="661" y1="720" x2="661" y2="720" style="stroke:black;stroke-width:1" />
 <line x1="661" y1="740" x2="661" y2="740" style="stroke:black;stroke-width:1" />
 <line x1="661" y1="720" x2="661" y2="740" style="stroke:black;stroke-width:1" />
 <line x1="661" y1="730" x2="661" y2="730" style="stroke:black;stroke-width:1" />
 <line x1="661" y1="760" x2="661" y2="760" style="stroke:black;stroke-width:1" />
 <line x1="661" y1="730" x2="661" y2="760" style="stroke:black;stroke-width:1" />
 <line x1="661" y1="220" x2="661" y2="220" style="stroke:black;stroke-width:1" />
 <line x1="661" y1="240" x2="661" y2="240" style="stroke:black;stroke-width:1" />
 <line x1="661" y1="220" x2="661" y2="240" style="stroke:black;stroke-width:1" />
 <line x1="661" y1="380" x2="661" y2="380" style="stroke:black;stroke-width:1" />
 <line x1="661" y1="400" x2="661" y2="400" style="stroke:black;stroke-width:1" />
 <line x1="661" y1="380" x2="661" y2="400" style="stroke:black;stroke-width:1" />
 <line x1="661" y1="460" x2="661" y2="460" style="stroke:black;stroke-width:1" />
 <line x1="661" y1="480" x2="661" y2="480" style="stroke:black;stroke-width:1" />
 <line x1="661" y1="460" x2="661" y2="480" style="stroke:black;stroke-width:1" />
 <line x1="661" y1="40" x2="661" y2="40" style="stroke:black;stroke-width:1" />
 <line x1="661" y1="60" x2="661" y2="60" style="stroke:black;stroke-width:1" />
 <line x1="661" y1="40" x2="661" y2="60" style="stroke:black;stroke-width:1" />
 <line x1="661" y1="520" x2="661" y2="520" style="stroke:black;stroke-width:1" />
 <line x1="661" y1="540" x2="661" y2="540" style="stroke:black;stroke-width:1" />
 <line x1="661" y1="520" x2="661" y2="540" style="stroke:black;stroke-width:1" />
 <line x1="661" y1="50" x2="661" y2="50" style="stroke:black;stroke-width:1" />
 <line x1="661" y1="80" x2="661" y2="80" style="stroke:black;stroke-width:1" />
 <line x1="661" y1="50" x2="661" y2="80" style="stroke:black;stroke-width:1" />
 <line x1="661" y1="65" x2="662" y2="65" style="stroke:black;stroke-width:1" />
 <line x1="661" y1="100" x2="662" y2="100" style="stroke:black;stroke-width:1" />
 <line x1="662" y1="65" x2="662" y2="100" style="stroke:black;stroke-width:1" />
 <line x1="662" y1="82" x2="662" y2="82" style="stroke:black;stroke-width:1" />
 <line x1="661" y1="120" x2="662" y2="120" style="stroke:black;stroke-width:1" />
 <line x1="662" y1="82" x2="662" y2="120" style="stroke:black;stroke-width:1" />
 <line x1="661" y1="200" x2="662" y2="200" style="stroke:black;stroke-width:1" />
 <line x1="661" y1="230" x2="662" y2="230" style="stroke:black;stroke-width:1" />
 <line x1="662" y1="200" x2="662" y2="230" style="stroke:black;stroke-width:1" />
 <line x1="662" y1="101" x2="662" y2="101" style="stroke:black;stroke-width:1" />
 <line x1="661" y1="140" x2="662" y2="140" style="stroke:black;stroke-width:1" />
 <line x1="662" y1="101" x2="662" y2="140" style="stroke:black;stroke-width:1" />
 <line x1="662" y1="215" x2="665" y2="215" style="stroke:black;stroke-width:1" />
 <line x1="661" y1="260" x2="665" y2="260" style="stroke:black;stroke-width:1" />
 <line x1="665" y1="215" x2="665" y2="260" style="stroke:black;stroke-width:1" />
 <line x1="661" y1="280" x2="665" y2="280" style="stroke:black;stroke-width:1" />
 <line x1="661" y1="300" x2="665" y2="300" style="stroke:black;stroke-width:1" />
 <line x1="665" y1="280" x2="665" y2="300" style="stroke:black;stroke-width:1" />
 <line x1="661" y1="640" x2="665" y2="640" style="stroke:black;stroke-width:1" />
 <line x1="661" y1="660" x2="665" y2="660" style="stroke:black;stroke-width:1" />
 <line x1="665" y1="640" x2="665" y2="660" style="stroke:black;stroke-width:1" />
 <line x1="661" y1="180" x2="667" y2="180" style="stroke:black;stroke-width:1" />
 <line x1="665" y1="237" x2="667" y2="237" style="stroke:black;stroke-width:1" />
 <line x1="667" y1="180" x2="667" y2="237" style="stroke:black;stroke-width:1" />
 <line x1="667" y1="208" x2="667" y2="208" style="stroke:black;stroke-width:1" />
 <line x1="665" y1="290" x2="667" y2="290" style="stroke:black;stroke-width:1" />
 <line x1="667" y1="208" x2="667" y2="290" style="stroke:black;stroke-width:1" />
 <line x1="661" y1="340" x2="668" y2="340" style="stroke:black;stroke-width:1" />
 <line x1="661" y1="360" x2="668" y2="360" style="stroke:black;stroke-width:1" />
 <line x1="668" y1="340" x2="668" y2="360" style="stroke:black;stroke-width:1" />
 <line x1="667" y1="249" x2="669" y2="249" style="stroke:black;stroke-width:1" />
 <line x1="661" y1="320" x2="669" y2="320" style="stroke:black;stroke-width:1" />
 <line x1="669" y1="249" x2="669" y2="320" style="stroke:black;stroke-width:1" />
 <line x1="661" y1="530" x2="673" y2="530" style="stroke:black;stroke-width:1" />
 <line x1="661" y1="560" x2="673" y2="560" style="stroke:black;stroke-width:1" />
 <line x1="673" y1="530" x2="673" y2="560" style="stroke:black;stroke-width:1" />
 <line x1="669" y1="284" x2="678" y2="284" style="stroke:black;stroke-width:1" />
 <line x1="668" y1="350" x2="678" y2="350" style="stroke:black;stroke-width:1" />
 <line x1="678" y1="284" x2="678" y2="350" style="stroke:black;stroke-width:1" />
 <line x1="678" y1="317" x2="682" y2="317" style="stroke:black;stroke-width:1" />
 <line x1="661" y1="390" x2="682" y2="390" style="stroke:black;stroke-width:1" />
 <line x1="682" y1="317" x2="682" y2="390" style="stroke:black;stroke-width:1" />
 <line x1="661" y1="700" x2="685" y2="700" style="stroke:black;stroke-width:1" />
 <line x1="661" y1="745" x2="685" y2="745" style="stroke:black;stroke-width:1" />
 <line x1="685" y1="700" x2="685" y2="745" style="stroke:black;stroke-width:1" />
 <line x1="682" y1="353" x2="693" y2="353" style="stroke:black;stroke-width:1" />
 <line x1="661" y1="420" x2="693" y2="420" style="stroke:black;stroke-width:1" />
 <line x1="693" y1="353" x2="693" y2="420" style="stroke:black;stroke-width:1" />
 <line x1="685" y1="722" x2="711" y2="722" style="stroke:black;stroke-width:1" />
 <line x1="661" y1="780" x2="711" y2="780" style="stroke:black;stroke-width:1" />
 <line x1="711" y1="722" x2="711" y2="780" style="stroke:black;stroke-width:1" />
 <line x1="693" y1="386" x2="713" y2="386" style="stroke:black;stroke-width:1" />
 <line x1="661" y1="440" x2="713" y2="440" style="stroke:black;stroke-width:1" />
 <line x1="713" y1="386" x2="713" y2="440" style="stroke:black;stroke-width:1" />
 <line x1="661" y1="800" x2="714" y2="800" style="stroke:black;stroke-width:1" />
 <line x1="661" y1="820" x2="714" y2="820" style="stroke:black;stroke-width:1" />
 <line x1="714" y1="800" x2="714" y2="820" style="stroke:black;stroke-width:1" />
 <line x1="661" y1="160" x2="721" y2="160" style="stroke:black;stroke-width:1" />
 <line x1="713" y1="413" x2="721" y2="413" style="stroke:black;stroke-width:1" />
 <line x1="721" y1="160" x2="721" y2="413" style="stroke:black;stroke-width:1" />
 <line x1="721" y1="286" x2="725" y2="286" style="stroke:black;stroke-width:1" />
 <line x1="661" y1="470" x2="725" y2="470" style="stroke:black;stroke-width:1" />
 <line x1="725" y1="286" x2="725" y2="470" style="stroke:black;stroke-width:1" />
 <line x1="661" y1="940" x2="726" y2="940" style="stroke:black;stroke-width:1" />
 <line x1="661" y1="960" x2="726" y2="960" style="stroke:black;stroke-width:1" />
 <line x1="726" y1="940" x2="726" y2="960" style="stroke:black;stroke-width:1" />
 <line x1="725" y1="378" x2="731" y2="378" style="stroke:black;stroke-width:1" />
 <line x1="661" y1="500" x2="731" y2="500" style="stroke:black;stroke-width:1" />
 <line x1="731" y1="378" x2="731" y2="500" style="stroke:black;stroke-width:1" />
 <line x1="673" y1="545" x2="740" y2="545" style="stroke:black;stroke-width:1" />
 <line x1="661" y1="580" x2="740" y2="580" style="stroke:black;stroke-width:1" />
 <line x1="740" y1="545" x2="740" y2="580" style="stroke:black;stroke-width:1" />
 <line x1="731" y1="439" x2="746" y2="439" style="stroke:black;stroke-width:1" />
 <line x1="740" y1="562" x2="746" y2="562" style="stroke:black;stroke-width:1" />
 <line x1="746" y1="439" x2="746" y2="562" style="stroke:black;stroke-width:1" />
 <line x1="746" y1="500" x2="775" y2="500" style="stroke:black;stroke-width:1" />
 <line x1="661" y1="600" x2="775" y2="600" style="stroke:black;stroke-width:1" />
 <line x1="775" y1="500" x2="775" y2="600" style="stroke:black;stroke-width:1" />
 <line x1="775" y1="550" x2="776" y2="550" style="stroke:black;stroke-width:1" />
 <line x1="661" y1="620" x2="776" y2="620" style="stroke:black;stroke-width:1" />
 <line x1="776" y1="550" x2="776" y2="620" style="stroke:black;stroke-width:1" />
 <line x1="776" y1="585" x2="825" y2="585" style="stroke:black;stroke-width:1" />
 <line x1="665" y1="650" x2="825" y2="650" style="stroke:black;stroke-width:1" />
 <line x1="825" y1="585" x2="825" y2="650" style="stroke:black;stroke-width:1" />
 <line x1="825" y1="617" x2="1124" y2="617" style="stroke:black;stroke-width:1" />
 <line x1="661" y1="680" x2="1124" y2="680" style="stroke:black;stroke-width:1" />
 <line x1="1124" y1="617" x2="1124" y2="680" style="stroke:black;stroke-width:1" />
 <line x1="662" y1="120" x2="1177" y2="120" style="stroke:black;stroke-width:1" />
 <line x1="1124" y1="648" x2="1177" y2="648" style="stroke:black;stroke-width:1" />
 <line x1="1177" y1="120" x2="1177" y2="648" style="stroke:black;stroke-width:1" />
 <line x1="1177" y1="384" x2="1228" y2="384" style="stroke:black;stroke-width:1" />
 <line x1="711" y1="751" x2="1228" y2="751" style="stroke:black;stroke-width:1" />
 <line x1="1228" y1="384" x2="1228" y2="751" style="stroke:black;stroke-width:1" />
 <line x1="1228" y1="567" x2="1657" y2="567" style="stroke:black;stroke-width:1" />
 <line x1="714" y1="810" x2="1657" y2="810" style="stroke:black;stroke-width:1" />
 <line x1="1657" y1="567" x2="1657" y2="810" style="stroke:black;stroke-width:1" />
 <line x1="1657" y1="688" x2="1695" y2="688" style="stroke:black;stroke-width:1" />
 <line x1="661" y1="840" x2="1695" y2="840" style="stroke:black;stroke-width:1" />
 <line x1="1695" y1="688" x2="1695" y2="840" style="stroke:black;stroke-width:1" />
 <line x1="1695" y1="764" x2="1705" y2="764" style="stroke:black;stroke-width:1" />
 <line x1="661" y1="860" x2="1705" y2="860" style="stroke:black;stroke-width:1" />
 <line x1="1705" y1="764" x2="1705" y2="860" style="stroke:black;stroke-width:1" />
 <line x1="1705" y1="812" x2="1712" y2="812" style="stroke:black;stroke-width:1" />
 <line x1="661" y1="880" x2="1712" y2="880" style="stroke:black;stroke-width:1" />
 <line x1="1712" y1="812" x2="1712" y2="880" style="stroke:black;stroke-width:1" />
 <line x1="1712" y1="846" x2="1713" y2="846" style="stroke:black;stroke-width:1" />
 <line x1="661" y1="900" x2="1713" y2="900" style="stroke:black;stroke-width:1" />
 <line x1="1713" y1="846" x2="1713" y2="900" style="stroke:black;stroke-width:1" />
 <line x1="1713" y1="873" x2="1737" y2="873" style="stroke:black;stroke-width:1" />
 <line x1="661" y1="920" x2="1737" y2="920" style="stroke:black;stroke-width:1" />
 <line x1="1737" y1="873" x2="1737" y2="920" style="stroke:black;stroke-width:1" />
 <line x1="1737" y1="896" x2="1749" y2="896" style="stroke:black;stroke-width:1" />
 <line x1="726" y1="950" x2="1749" y2="950" style="stroke:black;stroke-width:1" />
 <line x1="1749" y1="896" x2="1749" y2="950" style="stroke:black;stroke-width:1" />
 <line x1="1749" y1="923" x2="1849" y2="923" style="stroke:black;stroke-width:1" />
 <line x1="657" y1="40" x2="661" y2="40" style="stroke:black;stroke-width:1" />
 <line x1="657" y1="160" x2="661" y2="160" style="stroke:black;stroke-width:1" />
 <line x1="657" y1="600" x2="661" y2="600" style="stroke:black;stroke-width:1" />
 <line x1="657" y1="700" x2="661" y2="700" style="stroke:black;stroke-width:1" />
 <line x1="657" y1="520" x2="661" y2="520" style="stroke:black;stroke-width:1" />
 <line x1="657" y1="540" x2="661" y2="540" style="stroke:black;stroke-width:1" />
 <line x1="657" y1="180" x2="661" y2="180" style="stroke:black;stroke-width:1" />
 <line x1="657" y1="340" x2="661" y2="340" style="stroke:black;stroke-width:1" />
 <line x1="657" y1="140" x2="661" y2="140" style="stroke:black;stroke-width:1" />
 <line x1="657" y1="940" x2="661" y2="940" style="stroke:black;stroke-width:1" />
 <line x1="657" y1="920" x2="661" y2="920" style="stroke:black;stroke-width:1" />
 <line x1="657" y1="200" x2="661" y2="200" style="stroke:black;stroke-width:1" />
 <line x1="657" y1="580" x2="661" y2="580" style="stroke:black;stroke-width:1" />
 <line x1="657" y1="260" x2="661" y2="260" style="stroke:black;stroke-width:1" />
 <line x1="657" y1="960" x2="661" y2="960" style="stroke:black;stroke-width:1" />
 <line x1="657" y1="80" x2="661" y2="80" style="stroke:black;stroke-width:1" />
 <line x1="657" y1="60" x2="661" y2="60" style="stroke:black;stroke-width:1" />
 <line x1="657" y1="640" x2="661" y2="640" style="stroke:black;stroke-width:1" />
 <line x1="657" y1="380" x2="661" y2="380" style="stroke:black;stroke-width:1" />
 <line x1="657" y1="440" x2="661" y2="440" style="stroke:black;stroke-width:1" />
 <line x1="657" y1="100" x2="661" y2="100" style="stroke:black;stroke-width:1" />
 <line x1="657" y1="800" x2="661" y2="800" style="stroke:black;stroke-width:1" />
 <line x1="657" y1="360" x2="661" y2="360" style="stroke:black;stroke-width:1" />
 <line x1="657" y1="400" x2="661" y2="400" style="stroke:black;stroke-width:1" />
 <line x1="657" y1="220" x2="661" y2="220" style="stroke:black;stroke-width:1" />
 <line x1="657" y1="460" x2="661" y2="460" style="stroke:black;stroke-width:1" />
 <line x1="657" y1="280" x2="661" y2="280" style="stroke:black;stroke-width:1" />
 <line x1="657" y1="480" x2="661" y2="480" style="stroke:black;stroke-width:1" />
 <line x1="657" y1="500" x2="661" y2="500" style="stroke:black;stroke-width:1" />
 <line x1="657" y1="660" x2="661" y2="660" style="stroke:black;stroke-width:1" />
 <line x1="657" y1="300" x2="661" y2="300" style="stroke:black;stroke-width:1" />
 <line x1="657" y1="320" x2="661" y2="320" style="stroke:black;stroke-width:1" />
 <line x1="657" y1="720" x2="661" y2="720" style="stroke:black;stroke-width:1" />
 <line x1="657" y1="740" x2="661" y2="740" style="stroke:black;stroke-width:1" />
 <line x1="657" y1="680" x2="661" y2="680" style="stroke:black;stroke-width:1" />
 <line x1="657" y1="760" x2="661" y2="760" style="stroke:black;stroke-width:1" />
 <line x1="657" y1="240" x2="661" y2="240" style="stroke:black;stroke-width:1" />
 <line x1="657" y1="560" x2="661" y2="560" style="stroke:black;stroke-width:1" />
 <line x1="657" y1="860" x2="661" y2="860" style="stroke:black;stroke-width:1" />
 <line x1="657" y1="420" x2="661" y2="420" style="stroke:black;stroke-width:1" />
 <line x1="657" y1="620" x2="661" y2="620" style="stroke:black;stroke-width:1" />
 <line x1="657" y1="820" x2="661" y2="820" style="stroke:black;stroke-width:1" />
 <line x1="657" y1="780" x2="661" y2="780" style="stroke:black;stroke-width:1" />
 <line x1="657" y1="120" x2="661" y2="120" style="stroke:black;stroke-width:1" />
 <line x1="657" y1="840" x2="661" y2="840" style="stroke:black;stroke-width:1" />
 <line x1="657" y1="900" x2="661" y2="900" style="stroke:black;stroke-width:1" />
 <line x1="657" y1="880" x2="661" y2="880" style="stroke:black;stroke-width:1" />
 <circle id="Pval47"  cx="661" cy="730" r="7" fill="#CCCCCC" />
 <circle id="Pval48"  cx="661" cy="745" r="7" fill="#FFFF00" />
 <circle id="Pval49"  cx="661" cy="230" r="7" fill="#CCCCCC" />
 <circle id="Pval50"  cx="661" cy="390" r="7" fill="#CCCCCC" />
 <circle id="Pval51"  cx="661" cy="470" r="7" fill="#CCCCCC" />
 <circle id="Pval52"  cx="661" cy="50" r="7" fill="#CCCCCC" />
 <circle id="Pval53"  cx="661" cy="530" r="7" fill="#CCCCCC" />
 <circle id="Pval54"  cx="661" cy="65" r="7" fill="#FFFF00" />
 <circle id="Pval55"  cx="662" cy="82" r="7" fill="#FFFF00" />
 <circle id="Pval56"  cx="662" cy="101" r="7" fill="#FFFF00" />
 <circle id="Pval57"  cx="662" cy="215" r="7" fill="#FFFF00" />
 <circle id="Pval58"  cx="662" cy="120" r="7" fill="#FFFF00" />
 <circle id="Pval59"  cx="665" cy="237" r="7" fill="#FFFF00" />
 <circle id="Pval60"  cx="665" cy="290" r="7" fill="#CCCCCC" />
 <circle id="Pval61"  cx="665" cy="650" r="7" fill="#CCCCCC" />
 <circle id="Pval62"  cx="667" cy="208" r="7" fill="#FFFF00" />
 <circle id="Pval63"  cx="667" cy="249" r="7" fill="#FFFF00" />
 <circle id="Pval64"  cx="668" cy="350" r="7" fill="#CCCCCC" />
 <circle id="Pval65"  cx="669" cy="284" r="7" fill="#FFFF00" />
 <circle id="Pval66"  cx="673" cy="545" r="7" fill="#FFFF00" />
 <circle id="Pval67"  cx="678" cy="317" r="7" fill="#FFFF00" />
 <circle id="Pval68"  cx="682" cy="353" r="7" fill="#FFFF00" />
 <circle id="Pval69"  cx="685" cy="722" r="7" fill="#F00000" />
 <circle id="Pval70"  cx="693" cy="386" r="7" fill="#FFFF00" />
 <circle id="Pval71"  cx="711" cy="751" r="7" fill="#FFFF00" />
 <circle id="Pval72"  cx="713" cy="413" r="7" fill="#FFFF00" />
 <circle id="Pval73"  cx="714" cy="810" r="7" fill="#CCCCCC" />
 <circle id="Pval74"  cx="721" cy="286" r="7" fill="#FFFF00" />
 <circle id="Pval75"  cx="725" cy="378" r="7" fill="#FFFF00" />
 <circle id="Pval76"  cx="726" cy="950" r="7" fill="#CCCCCC" />
 <circle id="Pval77"  cx="731" cy="439" r="7" fill="#FFFF00" />
 <circle id="Pval78"  cx="740" cy="562" r="7" fill="#FFFF00" />
 <circle id="Pval79"  cx="746" cy="500" r="7" fill="#FFFF00" />
 <circle id="Pval80"  cx="775" cy="550" r="7" fill="#FFFF00" />
 <circle id="Pval81"  cx="776" cy="585" r="7" fill="#FFFF00" />
 <circle id="Pval82"  cx="825" cy="617" r="7" fill="#FFFF00" />
 <circle id="Pval83"  cx="1124" cy="648" r="7" fill="#FFFF00" />
 <circle id="Pval84"  cx="1177" cy="384" r="7" fill="#FFFF00" />
 <circle id="Pval85"  cx="1228" cy="567" r="7" fill="#FFFF00" />
 <circle id="Pval86"  cx="1657" cy="688" r="7" fill="#FFFF00" />
 <circle id="Pval87"  cx="1695" cy="764" r="7" fill="#FFFF00" />
 <circle id="Pval88"  cx="1705" cy="812" r="7" fill="#FFFF00" />
 <circle id="Pval89"  cx="1712" cy="846" r="7" fill="#FFFF00" />
 <circle id="Pval90"  cx="1713" cy="873" r="7" fill="#FFFF00" />
 <circle id="Pval91"  cx="1737" cy="896" r="7" fill="#FFFF00" />
 <circle id="Pval92"  cx="1749" cy="923" r="7" fill="#FFFF00" />
</svg>
