<svg xmlns="http://www.w3.org/2000/svg"  width="345" height="285" >
<g>
<line x1="40" y1="40"  x2="40" y2="240" style=" stroke: black;"/>
<line x1="40" y1="240"  x2="340" y2="240" style=" stroke: black;"/>
<line x1="37" y1="220"  x2="40" y2="220" style=" stroke: black;"/>
<text x="8" y="220" style="font-family: monospace; font-size: 8px;">0.00</text>
<line x1="37" y1="200"  x2="40" y2="200" style=" stroke: black;"/>
<text x="8" y="200" style="font-family: monospace; font-size: 8px;">0.00</text>
<line x1="37" y1="180"  x2="40" y2="180" style=" stroke: black;"/>
<text x="8" y="180" style="font-family: monospace; font-size: 8px;">0.00</text>
<line x1="37" y1="160"  x2="40" y2="160" style=" stroke: black;"/>
<text x="8" y="160" style="font-family: monospace; font-size: 8px;">0.00</text>
<line x1="37" y1="140"  x2="40" y2="140" style=" stroke: black;"/>
<text x="8" y="140" style="font-family: monospace; font-size: 8px;">0.00</text>
<line x1="37" y1="120"  x2="40" y2="120" style=" stroke: black;"/>
<text x="8" y="120" style="font-family: monospace; font-size: 8px;">0.00</text>
<line x1="37" y1="100"  x2="40" y2="100" style=" stroke: black;"/>
<text x="8" y="100" style="font-family: monospace; font-size: 8px;">0.00</text>
<line x1="37" y1="80"  x2="40" y2="80" style=" stroke: black;"/>
<text x="8" y="80" style="font-family: monospace; font-size: 8px;">0.00</text>
<line x1="37" y1="60"  x2="40" y2="60" style=" stroke: black;"/>
<text x="8" y="60" style="font-family: monospace; font-size: 8px;">0.00</text>
<line x1="37" y1="40"  x2="40" y2="40" style=" stroke: black;"/>
<text x="8" y="40" style="font-family: monospace; font-size: 8px;">0.00</text>
<line x1="70" y1="240"  x2="70" y2="245" style=" stroke: black;"/>
<text x="70" y="245" transform="rotate(90,70,245)" style="font-family: monospace; font-size: 8px;">3962</text>
<line x1="100" y1="240"  x2="100" y2="245" style=" stroke: black;"/>
<text x="100" y="245" transform="rotate(90,100,245)" style="font-family: monospace; font-size: 8px;">7924</text>
<line x1="130" y1="240"  x2="130" y2="245" style=" stroke: black;"/>
<text x="130" y="245" transform="rotate(90,130,245)" style="font-family: monospace; font-size: 8px;">11886</text>
<line x1="160" y1="240"  x2="160" y2="245" style=" stroke: black;"/>
<text x="160" y="245" transform="rotate(90,160,245)" style="font-family: monospace; font-size: 8px;">15848</text>
<line x1="190" y1="240"  x2="190" y2="245" style=" stroke: black;"/>
<text x="190" y="245" transform="rotate(90,190,245)" style="font-family: monospace; font-size: 8px;">19810</text>
<line x1="220" y1="240"  x2="220" y2="245" style=" stroke: black;"/>
<text x="220" y="245" transform="rotate(90,220,245)" style="font-family: monospace; font-size: 8px;">23772</text>
<line x1="250" y1="240"  x2="250" y2="245" style=" stroke: black;"/>
<text x="250" y="245" transform="rotate(90,250,245)" style="font-family: monospace; font-size: 8px;">27734</text>
<line x1="280" y1="240"  x2="280" y2="245" style=" stroke: black;"/>
<text x="280" y="245" transform="rotate(90,280,245)" style="font-family: monospace; font-size: 8px;">31696</text>
<line x1="310" y1="240"  x2="310" y2="245" style=" stroke: black;"/>
<text x="310" y="245" transform="rotate(90,310,245)" style="font-family: monospace; font-size: 8px;">35658</text>
<line x1="340" y1="240"  x2="340" y2="245" style=" stroke: black;"/>
<text x="340" y="245" transform="rotate(90,340,245)" style="font-family: monospace; font-size: 8px;">39620</text>
<text x="5" y="8" style="font-family: monospace; font-size: 10px;">Dist. Dt</text>
<text x="320" y="230" style="font-family: monospace; font-size: 10px;">Rank</text>
<polyline style="stroke: #00a5eb; stroke-width:1;fill: none;"  points="40 240,41 240,42 240,43 240,44 240,45 240,46 240,47 240,48 240,49 240,50 240,51 240,52 240,53 240,54 240,55 240,56 240,57 240,58 240,59 240,60 240,61 240,62 240,63 240,64 240,65 240,66 240,67 240,68 240,69 240,70 240,71 240,72 240,73 240,74 240,75 240,76 240,77 240,78 240,79 240,80 240,81 240,82 240,83 240,84 240,85 240,86 240,87 240,88 240,89 240,90 240,91 240,92 240,93 240,94 240,95 240,96 240,97 240,98 240,99 240,100 240,101 240,102 240,103 240,104 240,105 240,106 240,107 240,108 240,109 240,110 240,111 240,112 240,113 240,114 240,115 240,116 240,117 240,118 240,119 240,120 240,121 240,122 240,123 240,124 240,125 240,126 240,127 240,128 240,129 240,130 240,131 240,132 240,133 240,134 240,135 240,136 240,137 240,138 240,139 240,140 240,141 240,142 240,143 240,144 240,145 240,146 240,147 240,148 240,149 240,150 240,151 240,152 240,153 240,154 240,155 240,156 240,157 240,157 200,158 200,159 200,160 200,161 200,162 200,163 200,164 200,165 200,166 200,167 200,168 200,169 200,170 200,171 200,172 200,173 200,174 200,175 200,176 200,177 200,178 200,179 200,180 200,181 200,182 200,183 200,184 200,185 200,186 200,187 200,188 200,189 200,190 200,191 200,192 200,193 200,194 200,195 200,196 200,197 200,198 200,199 200,200 200,201 200,202 200,203 200,204 200,205 200,206 200,207 200,208 200,209 200,210 200,211 200,212 200,213 200,214 200,215 200,216 200,217 200,218 200,219 200,220 200,221 200,222 200,223 200,224 200,225 200,226 200,227 200,228 200,229 200,230 200,231 200,232 200,233 200,234 200,235 200,236 200,237 200,238 200,239 200,240 200,241 200,242 200,243 200,244 200,245 200,246 200,247 200,248 200,249 200,250 200,251 200,252 200,253 200,254 200,255 200,256 200,257 200,258 200,259 200,260 200,261 200,262 200,263 200,264 200,265 200,266 200,267 200,268 200,269 200,270 200,271 200,272 200,273 200,274 200,275 200,276 200,277 200,278 200,279 200,279 199,279 160,280 160,281 160,282 160,283 160,284 160,285 160,286 160,287 160,288 160,289 160,290 160,291 160,292 160,293 160,294 160,295 160,296 160,297 160,298 160,299 160,300 160,301 160,302 160,303 160,304 160,305 160,306 160,307 160,308 160,309 160,310 160,311 160,312 160,313 160,314 160,315 160,316 160,316 120,317 120,318 120,319 120,320 120,321 120,322 120,323 120,324 120,325 120,326 120,327 120,328 120,329 120,330 120,330 119,330 80,331 80,332 80,333 80,334 80,335 80,336 80,337 80,338 80,339 80,339 79,339 40,339 40"/><line id="CutDis5" visibility="hidden" x1="40" y1="240"  x2="340" y2="240" style=" stroke: red;"/>
<line id="CutDis4" visibility="hidden" x1="40" y1="200"  x2="340" y2="200" style=" stroke: red;"/>
<line id="CutDis3" visibility="hidden" x1="40" y1="200"  x2="340" y2="200" style=" stroke: red;"/>
<line id="CutDis2" visibility="hidden" x1="40" y1="220"  x2="340" y2="220" style=" stroke: red;"/>
<line id="CutDis1" visibility="hidden" x1="40" y1="180"  x2="340" y2="180" style=" stroke: red;"/>

</g>
</svg>
