<svg xmlns="http://www.w3.org/2000/svg"  width="3640" height="6300" >
<rect x="26918" y="20" width="241184" height="540" style="fill:lightblue;stroke:lightblue;" />
 <line x1="120" y1="20" x2="120" y2="560" style="stroke:black;stroke-width:1" />
  <text x="120" y="15" style="color:black;font-size :15;font-family = monospace;" >Asap Score</text>
  <text x="70" y="20" style="color:black;font-size :15;font-family = monospace;" >1.0</text>
 <line x1="110" y1="20" x2="120" y2="20" style="stroke:black;stroke-width:1" />
  <text x="70" y="74" style="color:black;font-size :15;font-family = monospace;" >1.6</text>
 <line x1="110" y1="74" x2="120" y2="74" style="stroke:black;stroke-width:1" />
  <text x="70" y="128" style="color:black;font-size :15;font-family = monospace;" >2.2</text>
 <line x1="110" y1="128" x2="120" y2="128" style="stroke:black;stroke-width:1" />
  <text x="70" y="182" style="color:black;font-size :15;font-family = monospace;" >2.8</text>
 <line x1="110" y1="182" x2="120" y2="182" style="stroke:black;stroke-width:1" />
  <text x="70" y="236" style="color:black;font-size :15;font-family = monospace;" >3.4</text>
 <line x1="110" y1="236" x2="120" y2="236" style="stroke:black;stroke-width:1" />
  <text x="70" y="290" style="color:black;font-size :15;font-family = monospace;" >4.0</text>
 <line x1="110" y1="290" x2="120" y2="290" style="stroke:black;stroke-width:1" />
  <text x="70" y="344" style="color:black;font-size :15;font-family = monospace;" >4.6</text>
 <line x1="110" y1="344" x2="120" y2="344" style="stroke:black;stroke-width:1" />
  <text x="70" y="398" style="color:black;font-size :15;font-family = monospace;" >5.2</text>
 <line x1="110" y1="398" x2="120" y2="398" style="stroke:black;stroke-width:1" />
  <text x="70" y="452" style="color:black;font-size :15;font-family = monospace;" >5.8</text>
 <line x1="110" y1="452" x2="120" y2="452" style="stroke:black;stroke-width:1" />
  <text x="70" y="506" style="color:black;font-size :15;font-family = monospace;" >6.4</text>
 <line x1="110" y1="506" x2="120" y2="506" style="stroke:black;stroke-width:1" />
  <text x="1873" y="575" style="color:black;font-size :15;font-family = monospace;" >0.000</text>
 <line x1="1873" y1="560" x2="1873" y2="570" style="stroke:black;stroke-width:1" />
  <text x="3626" y="575" style="color:black;font-size :15;font-family = monospace;" >0.001</text>
 <line x1="3626" y1="560" x2="3626" y2="570" style="stroke:black;stroke-width:1" />
  <text x="5379" y="575" style="color:black;font-size :15;font-family = monospace;" >0.001</text>
 <line x1="5379" y1="560" x2="5379" y2="570" style="stroke:black;stroke-width:1" />
  <text x="7132" y="575" style="color:black;font-size :15;font-family = monospace;" >0.001</text>
 <line x1="7132" y1="560" x2="7132" y2="570" style="stroke:black;stroke-width:1" />
  <text x="8885" y="575" style="color:black;font-size :15;font-family = monospace;" >0.002</text>
 <line x1="8885" y1="560" x2="8885" y2="570" style="stroke:black;stroke-width:1" />
  <text x="10638" y="575" style="color:black;font-size :15;font-family = monospace;" >0.002</text>
 <line x1="10638" y1="560" x2="10638" y2="570" style="stroke:black;stroke-width:1" />
  <text x="12391" y="575" style="color:black;font-size :15;font-family = monospace;" >0.002</text>
 <line x1="12391" y1="560" x2="12391" y2="570" style="stroke:black;stroke-width:1" />
 <line x1="120" y1="560" x2="12391" y2="560" style="stroke:black;stroke-width:1" />
  <text x="12371" y="572" style="color:black;font-size :10;font-family = monospace;" >dist</text>
    <line   visibility="hidden"  id="bestline1"   x1="7113" y1="155" x2="7113" y2="6285" stroke="green" />
    <line   visibility="hidden"  id="bestlinejump1"    x1="5366" y1="155" x2="5366" y2="6285" stroke="red" stroke-dasharray="5, 10"/>
 <circle id="bestScore4" onmousemove="ShowTooltip(evt, 'inter/intra: 9.32e-08 Nb species: 2 / 2 [1 subsets] dist:0.001305')"   onmouseout="HideTooltip(evt)" onclick="circle_click(1);" cx="7113" cy="155" r="7" style="fill:#FFFF00;stroke:black;" />
 <line x1="7113" y1="155" x2="3619" y2="290" style="stroke:black;stroke-width:1" />
    <line   visibility="hidden"  id="bestline4"   x1="3619" y1="290" x2="3619" y2="6285" stroke="green" />
    <line   visibility="hidden"  id="bestlinejump4"    x1="3618" y1="290" x2="3618" y2="6285" stroke="red" stroke-dasharray="5, 10"/>
 <circle id="bestScore3" onmousemove="ShowTooltip(evt, 'inter/intra: 8.10e-08 Nb species: 6 / 6 [2 subsets] dist:0.000653')"   onmouseout="HideTooltip(evt)" onclick="circle_click(4);" cx="3619" cy="290" r="7" style="fill:#FFFF00;stroke:black;" />
 <line x1="3619" y1="290" x2="3617" y2="290" style="stroke:black;stroke-width:1" />
    <line   visibility="hidden"  id="bestline3"   x1="3617" y1="290" x2="3617" y2="6285" stroke="green" />
    <line   visibility="hidden"  id="bestlinejump3"    x1="3616" y1="290" x2="3616" y2="6285" stroke="red" stroke-dasharray="5, 10"/>
 <circle id="bestScore2" onmousemove="ShowTooltip(evt, 'inter/intra: 8.10e-08 Nb species: 18 / 18 [6 subsets] dist:0.000653')"   onmouseout="HideTooltip(evt)" onclick="circle_click(3);" cx="3617" cy="290" r="7" style="fill:#FFFF00;stroke:black;" />
 <line x1="3617" y1="290" x2="3615" y2="290" style="stroke:black;stroke-width:1" />
    <line   visibility="hidden"  id="bestline2"   x1="3615" y1="290" x2="3615" y2="6285" stroke="green" />
    <line   visibility="hidden"  id="bestlinejump2"    x1="1867" y1="290" x2="1867" y2="6285" stroke="red" stroke-dasharray="5, 10"/>
 <circle id="bestScore1" onmousemove="ShowTooltip(evt, 'inter/intra: 4.12e-08 Nb species: 20 / 20 [18 subsets] dist:0.000652')"   onmouseout="HideTooltip(evt)" onclick="circle_click(2);" cx="3615" cy="290" r="7" style="fill:#FFAF00;stroke:black;" />
 <line x1="3615" y1="290" x2="120" y2="425" style="stroke:black;stroke-width:1" />
    <line   visibility="hidden"  id="bestline5"   x1="120" y1="425" x2="120" y2="6285" stroke="green" />
    <line   visibility="hidden"  id="bestlinejump5"    x1="120" y1="425" x2="120" y2="6285" stroke="red" stroke-dasharray="5, 10"/>
 <circle id="bestScore0" onmousemove="ShowTooltip(evt, 'inter/intra: 4.19e-08 Nb species: 282 / 282 [20 subsets] dist:0.000000')"   onmouseout="HideTooltip(evt)" onclick="circle_click(5);" cx="120" cy="425" r="7" style="fill:#FFFF00;stroke:black;" />
  <text x="10" y="622" style="color:black;font-size :12;font-family = monospace;" >Legend:</text>
 <circle cx="80" cy="610" r="6" fill="#320000" />
  <text x="75" y="625" style="color:black;font-size :12;font-family = monospace;" >&lt;0.001</text>
 <circle cx="142" cy="610" r="6" fill="#F00000" />
  <text x="137" y="625" style="color:black;font-size :12;font-family = monospace;" >&lt;0.05</text>
 <circle cx="204" cy="610" r="6" fill="#FFAF00" />
  <text x="199" y="625" style="color:black;font-size :12;font-family = monospace;" >&lt;0.1</text>
 <circle cx="266" cy="610" r="6" fill="#FFFF00" />
  <text x="261" y="625" style="color:black;font-size :12;font-family = monospace;" >&gt;0.1</text>
 <circle cx="328" cy="610" r="6" fill="#CCCCCC" />
  <text x="323" y="625" style="color:black;font-size :12;font-family = monospace;" >N/A</text>
 <line x1="400" y1="625" x2="410" y2="625" style="stroke:#ffb83b;stroke-width:1" />
</svg>
