<?xml version="1.0" standalone="no"?>
<!DOCTYPE svg PUBLIC "-//W3C//DTD SVG 1.1//EN"
"http://www.w3.org/Graphics/SVG/1.1/DTD/svg11.dtd">
<svg xmlns="http://www.w3.org/2000/svg"
width="745" height="545" >
<g>
<line x1="40" y1="40"  x2="40" y2="500" style=" stroke: black;"/>
<line x1="40" y1="500"  x2="700" y2="500" style=" stroke: black;"/>
<line x1="37" y1="454"  x2="40" y2="454" style=" stroke: black;"/>
<text x="8" y="454" style="font-family: monospace; font-size: 10px;">0.00</text>
<line x1="37" y1="408"  x2="40" y2="408" style=" stroke: black;"/>
<text x="8" y="408" style="font-family: monospace; font-size: 10px;">0.00</text>
<line x1="37" y1="362"  x2="40" y2="362" style=" stroke: black;"/>
<text x="8" y="362" style="font-family: monospace; font-size: 10px;">0.00</text>
<line x1="37" y1="316"  x2="40" y2="316" style=" stroke: black;"/>
<text x="8" y="316" style="font-family: monospace; font-size: 10px;">0.00</text>
<line x1="37" y1="270"  x2="40" y2="270" style=" stroke: black;"/>
<text x="8" y="270" style="font-family: monospace; font-size: 10px;">0.00</text>
<line x1="37" y1="224"  x2="40" y2="224" style=" stroke: black;"/>
<text x="8" y="224" style="font-family: monospace; font-size: 10px;">0.00</text>
<line x1="37" y1="178"  x2="40" y2="178" style=" stroke: black;"/>
<text x="8" y="178" style="font-family: monospace; font-size: 10px;">0.00</text>
<line x1="37" y1="132"  x2="40" y2="132" style=" stroke: black;"/>
<text x="8" y="132" style="font-family: monospace; font-size: 10px;">0.00</text>
<line x1="37" y1="86"  x2="40" y2="86" style=" stroke: black;"/>
<text x="8" y="86" style="font-family: monospace; font-size: 10px;">0.00</text>
<line x1="37" y1="40"  x2="40" y2="40" style=" stroke: black;"/>
<text x="8" y="40" style="font-family: monospace; font-size: 10px;">0.00</text>
<line x1="106" y1="500"  x2="106" y2="505" style=" stroke: black;"/>
<text x="106" y="505" transform="rotate(90,106,505)" style="font-family: monospace; font-size: 10px;">3962</text>
<line x1="172" y1="500"  x2="172" y2="505" style=" stroke: black;"/>
<text x="172" y="505" transform="rotate(90,172,505)" style="font-family: monospace; font-size: 10px;">7924</text>
<line x1="238" y1="500"  x2="238" y2="505" style=" stroke: black;"/>
<text x="238" y="505" transform="rotate(90,238,505)" style="font-family: monospace; font-size: 10px;">11886</text>
<line x1="304" y1="500"  x2="304" y2="505" style=" stroke: black;"/>
<text x="304" y="505" transform="rotate(90,304,505)" style="font-family: monospace; font-size: 10px;">15848</text>
<line x1="370" y1="500"  x2="370" y2="505" style=" stroke: black;"/>
<text x="370" y="505" transform="rotate(90,370,505)" style="font-family: monospace; font-size: 10px;">19810</text>
<line x1="436" y1="500"  x2="436" y2="505" style=" stroke: black;"/>
<text x="436" y="505" transform="rotate(90,436,505)" style="font-family: monospace; font-size: 10px;">23772</text>
<line x1="502" y1="500"  x2="502" y2="505" style=" stroke: black;"/>
<text x="502" y="505" transform="rotate(90,502,505)" style="font-family: monospace; font-size: 10px;">27734</text>
<line x1="568" y1="500"  x2="568" y2="505" style=" stroke: black;"/>
<text x="568" y="505" transform="rotate(90,568,505)" style="font-family: monospace; font-size: 10px;">31696</text>
<line x1="634" y1="500"  x2="634" y2="505" style=" stroke: black;"/>
<text x="634" y="505" transform="rotate(90,634,505)" style="font-family: monospace; font-size: 10px;">35658</text>
<line x1="700" y1="500"  x2="700" y2="505" style=" stroke: black;"/>
<text x="700" y="505" transform="rotate(90,700,505)" style="font-family: monospace; font-size: 10px;">39620</text>
<text x="705" y="490" style="font-family: monospace; font-size: 10px;">Rank</text>
<text x="5" y="15" style="font-family: monospace; font-size: 10px;">Dist. value</text>
<polyline style="stroke: #D82424; stroke-width:1;fill: none;"  points="40 500,41 500,42 500,43 500,44 500,45 500,46 500,47 500,48 500,49 500,50 500,51 500,52 500,53 500,54 500,55 500,56 500,57 500,58 500,59 500,60 500,61 500,62 500,63 500,64 500,65 500,66 500,67 500,68 500,69 500,70 500,71 500,72 500,73 500,74 500,75 500,76 500,77 500,78 500,79 500,80 500,81 500,82 500,83 500,84 500,85 500,86 500,87 500,88 500,89 500,90 500,91 500,92 500,93 500,94 500,95 500,96 500,97 500,98 500,99 500,100 500,101 500,102 500,103 500,104 500,105 500,106 500,107 500,108 500,109 500,110 500,111 500,112 500,113 500,114 500,115 500,116 500,117 500,118 500,119 500,120 500,121 500,122 500,123 500,124 500,125 500,126 500,127 500,128 500,129 500,130 500,131 500,132 500,133 500,134 500,135 500,136 500,137 500,138 500,139 500,140 500,141 500,142 500,143 500,144 500,145 500,146 500,147 500,148 500,149 500,150 500,151 500,152 500,153 500,154 500,155 500,156 500,157 500,158 500,159 500,160 500,161 500,162 500,163 500,164 500,165 500,166 500,167 500,168 500,169 500,170 500,171 500,172 500,173 500,174 500,175 500,176 500,177 500,178 500,179 500,180 500,181 500,182 500,183 500,184 500,185 500,186 500,187 500,188 500,189 500,190 500,191 500,192 500,193 500,194 500,195 500,196 500,197 500,198 500,199 500,200 500,201 500,202 500,203 500,204 500,205 500,206 500,207 500,208 500,209 500,210 500,211 500,212 500,213 500,214 500,215 500,216 500,217 500,218 500,219 500,220 500,221 500,222 500,223 500,224 500,225 500,226 500,227 500,228 500,229 500,230 500,231 500,232 500,233 500,234 500,235 500,236 500,237 500,238 500,239 500,240 500,241 500,242 500,243 500,244 500,245 500,246 500,247 500,248 500,249 500,250 500,251 500,252 500,253 500,254 500,255 500,256 500,257 500,258 500,259 500,260 500,261 500,262 500,263 500,264 500,265 500,266 500,267 500,268 500,269 500,270 500,271 500,272 500,273 500,274 500,275 500,276 500,277 500,278 500,279 500,280 500,281 500,282 500,283 500,284 500,285 500,286 500,287 500,288 500,289 500,290 500,291 500,292 500,293 500,294 500,295 500,296 500,297 500,298 500,299 500,299 408,300 408,301 408,302 408,303 408,304 408,305 408,306 408,307 408,308 408,309 408,310 408,311 408,312 408,313 408,314 408,315 408,316 408,317 408,318 408,319 408,320 408,321 408,322 408,323 408,324 408,325 408,326 408,327 408,328 408,329 408,330 408,331 408,332 408,333 408,334 408,335 408,336 408,337 408,338 408,339 408,340 408,341 408,342 408,343 408,344 408,345 408,346 408,347 408,348 408,349 408,350 408,351 408,352 408,353 408,354 408,355 408,356 408,357 408,358 408,359 408,360 408,361 408,362 408,363 408,364 408,365 408,366 408,367 408,368 408,369 408,370 408,371 408,372 408,373 408,374 408,375 408,376 408,377 408,378 408,379 408,380 408,381 408,382 408,383 408,384 408,385 408,386 408,387 408,388 408,389 408,390 408,391 408,392 408,393 408,394 408,395 408,396 408,397 408,398 408,399 408,400 408,401 408,402 408,403 408,404 408,405 408,406 408,407 408,408 408,409 408,410 408,411 408,412 408,413 408,414 408,415 408,416 408,417 408,418 408,419 408,420 408,421 408,422 408,423 408,424 408,425 408,426 408,427 408,428 408,429 408,430 408,431 408,432 408,433 408,434 408,435 408,436 408,437 408,438 408,439 408,440 408,441 408,442 408,443 408,444 408,445 408,446 408,447 408,448 408,449 408,450 408,451 408,452 408,453 408,454 408,455 408,456 408,457 408,458 408,459 408,460 408,461 408,462 408,463 408,464 408,465 408,466 408,467 408,468 408,469 408,470 408,471 408,472 408,473 408,474 408,475 408,476 408,477 408,478 408,479 408,480 408,481 408,482 408,483 408,484 408,485 408,486 408,487 408,488 408,489 408,490 408,491 408,492 408,493 408,494 408,495 408,496 408,497 408,498 408,499 408,500 408,501 408,502 408,503 408,504 408,505 408,506 408,507 408,508 408,509 408,510 408,511 408,512 408,513 408,514 408,515 408,516 408,517 408,518 408,519 408,520 408,521 408,522 408,523 408,524 408,525 408,526 408,527 408,528 408,529 408,530 408,531 408,532 408,533 408,534 408,535 408,536 408,537 408,538 408,539 408,540 408,541 408,542 408,543 408,544 408,545 408,546 408,547 408,548 408,549 408,550 408,551 408,552 408,553 408,554 408,555 408,556 408,557 408,558 408,559 408,560 408,561 408,562 408,563 408,564 408,565 408,566 408,567 408,567 407,567 316,568 316,569 316,570 316,571 316,572 316,573 316,574 316,575 316,576 316,577 316,578 316,579 316,580 316,581 316,582 316,583 316,584 316,585 316,586 316,587 316,588 316,589 316,590 316,591 316,592 316,593 316,594 316,595 316,596 316,597 316,598 316,599 316,600 316,601 316,602 316,603 316,604 316,605 316,606 316,607 316,608 316,609 316,610 316,611 316,612 316,613 316,614 316,615 316,616 316,617 316,618 316,619 316,620 316,621 316,622 316,623 316,624 316,625 316,626 316,627 316,628 316,629 316,630 316,631 316,632 316,633 316,634 316,635 316,636 316,637 316,638 316,639 316,640 316,641 316,642 316,643 316,644 316,645 316,646 316,647 316,648 316,648 315,648 224,649 224,650 224,651 224,652 224,653 224,654 224,655 224,656 224,657 224,658 224,659 224,660 224,661 224,662 224,663 224,664 224,665 224,666 224,667 224,668 224,669 224,670 224,671 224,672 224,673 224,674 224,675 224,676 224,677 224,678 224,679 224,679 223,679 132,680 132,681 132,682 132,683 132,684 132,685 132,686 132,687 132,688 132,689 132,690 132,691 132,692 132,693 132,694 132,695 132,696 132,697 132,698 132,698 131,698 40,699 40,699 40"/></g>
</svg>
