<?xml version="1.0" standalone="no"?>
<!DOCTYPE svg PUBLIC "-//W3C//DTD SVG 1.1//EN"
"http://www.w3.org/Graphics/SVG/1.1/DTD/svg11.dtd">
<svg xmlns="http://www.w3.org/2000/svg"
width="745" height="545" >
<g>
<line x1="40" y1="40"  x2="40" y2="500" style=" stroke: black;"/>
<line x1="40" y1="500"  x2="700" y2="500" style=" stroke: black;"/>
<line x1="37" y1="454"  x2="40" y2="454" style=" stroke: black;"/>
<text x="8" y="454" style="font-family: monospace; font-size: 10px;">0.00</text>
<line x1="37" y1="408"  x2="40" y2="408" style=" stroke: black;"/>
<text x="8" y="408" style="font-family: monospace; font-size: 10px;">0.00</text>
<line x1="37" y1="362"  x2="40" y2="362" style=" stroke: black;"/>
<text x="8" y="362" style="font-family: monospace; font-size: 10px;">0.01</text>
<line x1="37" y1="316"  x2="40" y2="316" style=" stroke: black;"/>
<text x="8" y="316" style="font-family: monospace; font-size: 10px;">0.01</text>
<line x1="37" y1="270"  x2="40" y2="270" style=" stroke: black;"/>
<text x="8" y="270" style="font-family: monospace; font-size: 10px;">0.01</text>
<line x1="37" y1="224"  x2="40" y2="224" style=" stroke: black;"/>
<text x="8" y="224" style="font-family: monospace; font-size: 10px;">0.01</text>
<line x1="37" y1="178"  x2="40" y2="178" style=" stroke: black;"/>
<text x="8" y="178" style="font-family: monospace; font-size: 10px;">0.01</text>
<line x1="37" y1="132"  x2="40" y2="132" style=" stroke: black;"/>
<text x="8" y="132" style="font-family: monospace; font-size: 10px;">0.01</text>
<line x1="37" y1="86"  x2="40" y2="86" style=" stroke: black;"/>
<text x="8" y="86" style="font-family: monospace; font-size: 10px;">0.02</text>
<line x1="37" y1="40"  x2="40" y2="40" style=" stroke: black;"/>
<text x="8" y="40" style="font-family: monospace; font-size: 10px;">0.02</text>
<line x1="106" y1="500"  x2="106" y2="505" style=" stroke: black;"/>
<text x="106" y="505" transform="rotate(90,106,505)" style="font-family: monospace; font-size: 10px;">108</text>
<line x1="172" y1="500"  x2="172" y2="505" style=" stroke: black;"/>
<text x="172" y="505" transform="rotate(90,172,505)" style="font-family: monospace; font-size: 10px;">216</text>
<line x1="238" y1="500"  x2="238" y2="505" style=" stroke: black;"/>
<text x="238" y="505" transform="rotate(90,238,505)" style="font-family: monospace; font-size: 10px;">324</text>
<line x1="304" y1="500"  x2="304" y2="505" style=" stroke: black;"/>
<text x="304" y="505" transform="rotate(90,304,505)" style="font-family: monospace; font-size: 10px;">432</text>
<line x1="370" y1="500"  x2="370" y2="505" style=" stroke: black;"/>
<text x="370" y="505" transform="rotate(90,370,505)" style="font-family: monospace; font-size: 10px;">540</text>
<line x1="436" y1="500"  x2="436" y2="505" style=" stroke: black;"/>
<text x="436" y="505" transform="rotate(90,436,505)" style="font-family: monospace; font-size: 10px;">648</text>
<line x1="502" y1="500"  x2="502" y2="505" style=" stroke: black;"/>
<text x="502" y="505" transform="rotate(90,502,505)" style="font-family: monospace; font-size: 10px;">756</text>
<line x1="568" y1="500"  x2="568" y2="505" style=" stroke: black;"/>
<text x="568" y="505" transform="rotate(90,568,505)" style="font-family: monospace; font-size: 10px;">864</text>
<line x1="634" y1="500"  x2="634" y2="505" style=" stroke: black;"/>
<text x="634" y="505" transform="rotate(90,634,505)" style="font-family: monospace; font-size: 10px;">972</text>
<line x1="700" y1="500"  x2="700" y2="505" style=" stroke: black;"/>
<text x="700" y="505" transform="rotate(90,700,505)" style="font-family: monospace; font-size: 10px;">1080</text>
<text x="705" y="490" style="font-family: monospace; font-size: 10px;">Rank</text>
<text x="5" y="15" style="font-family: monospace; font-size: 10px;">Dist. value</text>
<polyline style="stroke: #D82424; stroke-width:1;fill: none;"  points="40 499,41 499,42 499,43 499,44 499,45 499,46 499,47 499,48 499,49 499,50 499,51 499,52 499,53 499,54 499,54 498,55 498,56 498,57 498,57 497,58 497,59 497,60 497,60 496,61 496,62 496,63 496,64 496,65 496,66 495,67 495,68 495,69 494,70 494,71 494,71 493,72 493,72 492,73 491,74 491,75 491,76 491,77 491,78 490,79 490,80 490,81 490,82 490,83 490,84 490,85 490,86 489,87 489,88 489,88 488,89 488,90 488,91 488,92 488,93 487,94 486,94 485,95 485,96 485,96 484,97 484,98 484,99 484,100 482,101 482,102 480,103 480,104 479,105 479,106 479,107 478,107 476,108 476,109 475,110 475,111 475,112 475,113 474,114 474,115 474,116 474,116 473,117 472,118 472,119 472,120 472,121 472,122 472,123 472,124 472,125 471,126 471,127 471,128 471,129 471,130 471,131 471,132 471,133 471,134 471,135 471,136 471,137 470,138 469,139 469,140 469,141 469,141 468,142 468,143 468,144 468,145 468,145 467,146 467,146 466,147 466,148 466,149 465,150 465,151 464,152 464,152 463,153 463,154 463,155 463,156 463,157 463,158 463,159 462,160 461,161 461,162 461,163 461,164 461,165 461,166 461,167 461,168 460,169 460,170 460,171 460,172 460,173 460,174 460,175 459,176 459,177 459,178 459,179 459,180 458,181 456,182 456,183 456,184 456,185 455,186 455,187 455,187 454,188 454,189 454,190 454,191 454,192 454,193 454,194 453,195 453,196 452,197 452,198 452,199 452,200 451,201 451,201 450,202 450,203 450,203 448,204 448,205 446,206 443,206 442,207 442,207 440,208 438,209 438,209 434,210 433,210 432,211 432,212 432,212 431,213 428,214 428,214 427,215 427,216 427,217 427,218 427,219 426,220 426,221 426,222 426,223 426,224 426,225 426,226 425,227 425,228 425,229 425,229 424,230 424,231 424,232 424,232 423,233 423,234 423,235 423,235 422,236 421,237 421,237 420,238 419,239 419,239 418,240 415,241 415,242 415,243 414,244 414,245 414,245 413,246 413,247 412,248 412,248 411,249 411,250 410,250 408,251 408,251 407,252 406,253 406,253 395,254 394,254 317,255 309,256 309,256 308,257 307,257 306,258 306,259 306,260 306,261 305,262 304,262 303,263 303,264 303,265 303,265 300,266 300,267 298,267 296,268 296,268 295,269 295,270 295,271 295,272 295,272 294,273 294,273 287,274 287,275 287,276 287,277 287,278 287,279 287,280 286,281 286,282 286,283 285,284 285,284 282,285 281,286 280,287 280,288 280,289 280,290 280,291 280,292 280,293 280,294 280,295 280,296 280,297 280,298 280,299 280,300 280,301 280,302 279,303 279,304 279,305 279,306 279,307 279,308 279,309 279,310 279,311 279,312 279,313 279,314 279,315 279,316 279,317 279,318 279,319 279,320 279,321 279,322 276,323 276,324 276,325 276,326 276,327 276,328 276,329 276,330 276,331 276,332 276,333 274,334 274,335 274,336 274,336 273,337 273,338 273,339 273,340 273,341 273,342 273,343 273,344 273,345 273,346 273,347 273,347 272,348 272,349 272,350 272,351 272,352 272,353 272,354 272,355 272,356 272,357 272,358 272,359 272,360 272,361 272,362 272,363 272,364 271,365 271,366 271,367 271,368 271,369 271,369 269,370 269,371 269,372 269,373 268,374 268,375 268,376 268,377 265,378 265,379 265,380 265,380 255,381 255,382 255,383 255,384 186,385 186,386 186,387 186,388 107,389 103,389 96,390 92,391 91,392 89,393 89,394 89,395 89,396 89,397 89,397 88,398 88,399 88,400 88,401 87,402 87,403 87,404 87,405 87,406 87,407 87,408 87,409 87,410 87,411 87,412 87,413 87,413 86,414 86,415 86,416 86,417 86,418 86,419 86,420 86,421 86,422 86,423 86,424 85,425 85,426 85,427 85,428 85,429 85,430 85,431 85,431 84,432 84,433 84,434 84,435 84,436 84,437 84,438 84,439 84,440 84,441 84,442 84,443 84,444 84,445 84,446 84,447 83,448 83,449 83,450 83,451 83,452 83,453 83,454 83,455 83,456 83,457 83,458 83,458 82,459 82,460 82,461 82,462 82,463 82,464 82,465 82,466 82,467 82,468 82,469 82,469 81,470 81,471 81,472 81,473 81,474 81,475 81,476 81,477 81,478 81,479 81,480 81,481 81,482 81,483 81,484 81,485 81,486 80,487 80,488 80,489 80,490 80,491 80,491 79,492 79,493 79,494 79,495 79,496 79,497 79,498 78,499 78,500 78,501 78,502 78,502 77,503 77,504 77,505 77,506 77,507 77,508 76,509 76,510 75,511 75,512 75,513 75,514 75,515 75,516 75,516 74,517 74,518 74,519 74,520 74,521 74,522 74,523 74,524 74,525 74,526 74,527 74,528 74,529 74,530 74,531 74,532 74,533 74,534 74,535 74,535 73,536 73,537 73,538 73,539 73,540 73,541 73,542 73,543 73,544 73,545 73,546 73,547 73,548 73,549 73,550 73,551 73,552 73,553 73,554 72,555 72,556 72,557 72,558 72,559 72,560 72,560 71,561 71,562 71,563 71,564 71,565 71,566 71,567 71,568 71,569 71,570 71,571 71,572 71,573 71,574 71,575 70,576 70,577 70,578 70,579 70,580 70,581 70,582 70,583 70,584 70,585 70,586 70,587 70,588 70,589 70,590 70,591 70,592 70,593 69,594 69,595 69,596 69,597 69,598 69,599 68,600 68,601 68,602 68,603 68,604 68,605 68,606 68,607 67,608 67,609 67,610 67,611 67,612 67,613 67,614 67,615 67,616 67,617 67,618 67,619 67,620 67,621 67,622 66,623 66,624 66,625 66,626 66,627 66,628 66,629 66,630 66,631 66,631 65,632 65,633 65,634 65,635 65,636 65,637 65,638 65,639 65,640 65,641 64,642 64,643 64,644 64,645 64,646 64,647 64,648 64,649 64,650 63,651 63,652 63,653 63,654 63,655 63,656 62,657 62,658 62,659 62,660 61,661 61,662 61,663 61,664 61,665 61,666 61,667 61,668 61,668 60,669 60,670 59,671 59,672 59,673 58,674 58,675 58,676 58,676 57,677 56,678 56,679 55,680 55,681 54,681 53,682 53,683 52,684 52,685 51,686 50,687 50,688 50,689 50,689 47,690 46,691 46,692 46,693 44,694 43,695 43,696 43,696 41,697 41,698 40,699 40"/></g>
</svg>
