<?xml version="1.0" standalone="no"?>
<!DOCTYPE svg PUBLIC "-//W3C//DTD SVG 1.1//EN"
"http://www.w3.org/Graphics/SVG/1.1/DTD/svg11.dtd">
<svg xmlns="http://www.w3.org/2000/svg"
width="765" height="575" >
<g>
<line x1="40" y1="40"  x2="40" y2="500" style=" stroke: black;"/>
<text x="5" y="12" style="font-family: monospace; font-size: 10px;">nb. groups</text>
<line x1="40" y1="500"  x2="700" y2="500" style=" stroke: black;"/>
<text x="540" y="550" style="font-family: monospace; font-size: 10px;">prior intraspecific divergence (P)</text>
<line x1="37" y1="500"  x2="40" y2="500" style=" stroke: black;"/>
<text x="17" y="495" style="font-family: monospace; font-size: 10px;">0</text>
<line x1="37" y1="477"  x2="40" y2="477" style=" stroke: black;"/>
<text x="17" y="472" style="font-family: monospace; font-size: 10px;">1</text>
<line x1="37" y1="454"  x2="40" y2="454" style=" stroke: black;"/>
<text x="17" y="449" style="font-family: monospace; font-size: 10px;">2</text>
<line x1="37" y1="431"  x2="40" y2="431" style=" stroke: black;"/>
<text x="17" y="426" style="font-family: monospace; font-size: 10px;">3</text>
<line x1="37" y1="408"  x2="40" y2="408" style=" stroke: black;"/>
<text x="17" y="403" style="font-family: monospace; font-size: 10px;">4</text>
<line x1="37" y1="385"  x2="40" y2="385" style=" stroke: black;"/>
<text x="17" y="380" style="font-family: monospace; font-size: 10px;">5</text>
<line x1="37" y1="362"  x2="40" y2="362" style=" stroke: black;"/>
<text x="17" y="357" style="font-family: monospace; font-size: 10px;">6</text>
<line x1="37" y1="339"  x2="40" y2="339" style=" stroke: black;"/>
<text x="17" y="334" style="font-family: monospace; font-size: 10px;">7</text>
<line x1="37" y1="316"  x2="40" y2="316" style=" stroke: black;"/>
<text x="17" y="311" style="font-family: monospace; font-size: 10px;">8</text>
<line x1="37" y1="293"  x2="40" y2="293" style=" stroke: black;"/>
<text x="17" y="288" style="font-family: monospace; font-size: 10px;">9</text>
<line x1="37" y1="270"  x2="40" y2="270" style=" stroke: black;"/>
<text x="17" y="265" style="font-family: monospace; font-size: 10px;">10</text>
<line x1="37" y1="247"  x2="40" y2="247" style=" stroke: black;"/>
<text x="17" y="242" style="font-family: monospace; font-size: 10px;">11</text>
<line x1="37" y1="224"  x2="40" y2="224" style=" stroke: black;"/>
<text x="17" y="219" style="font-family: monospace; font-size: 10px;">12</text>
<line x1="37" y1="201"  x2="40" y2="201" style=" stroke: black;"/>
<text x="17" y="196" style="font-family: monospace; font-size: 10px;">13</text>
<line x1="37" y1="178"  x2="40" y2="178" style=" stroke: black;"/>
<text x="17" y="173" style="font-family: monospace; font-size: 10px;">14</text>
<line x1="37" y1="155"  x2="40" y2="155" style=" stroke: black;"/>
<text x="17" y="150" style="font-family: monospace; font-size: 10px;">15</text>
<line x1="37" y1="132"  x2="40" y2="132" style=" stroke: black;"/>
<text x="17" y="127" style="font-family: monospace; font-size: 10px;">16</text>
<line x1="37" y1="109"  x2="40" y2="109" style=" stroke: black;"/>
<text x="17" y="104" style="font-family: monospace; font-size: 10px;">17</text>
<line x1="37" y1="86"  x2="40" y2="86" style=" stroke: black;"/>
<text x="17" y="81" style="font-family: monospace; font-size: 10px;">18</text>
<line x1="37" y1="63"  x2="40" y2="63" style=" stroke: black;"/>
<text x="17" y="58" style="font-family: monospace; font-size: 10px;">19</text>
<line x1="37" y1="40"  x2="40" y2="40" style=" stroke: black;"/>
<text x="17" y="35" style="font-family: monospace; font-size: 10px;">20</text>
<line x1="40" y1="500"  x2="40" y2="503" style=" stroke: black;"/>
<line x1="218" y1="500"  x2="218" y2="503" style=" stroke: black;"/>
<line x1="323" y1="500"  x2="323" y2="503" style=" stroke: black;"/>
<line x1="397" y1="500"  x2="397" y2="503" style=" stroke: black;"/>
<line x1="455" y1="500"  x2="455" y2="503" style=" stroke: black;"/>
<line x1="502" y1="500"  x2="502" y2="503" style=" stroke: black;"/>
<line x1="541" y1="500"  x2="541" y2="503" style=" stroke: black;"/>
<line x1="576" y1="500"  x2="576" y2="503" style=" stroke: black;"/>
<line x1="606" y1="500"  x2="606" y2="503" style=" stroke: black;"/>
<line x1="634" y1="500"  x2="634" y2="503" style=" stroke: black;"/>
<rect x="640" y="20" width="5" height="5" fill= "#D82424" />
<text x="648" y="25" style="font-family: monospace; font-size: 10px;">Recursive Partition</text>
<rect x="640" y="40" width="5" height="5" fill= "#EBE448" />
<text x="648" y="45" style="font-family: monospace; font-size: 10px;">Initial Partition</text>
<rect x="40" y="224" width="5" height="5" fill= "#D82424" />
<line x1="40" y1="500"  x2="40" y2="505" style=" stroke: black;"/>
<text x="35" y="505" transform="rotate(90,35,505)" style="font-family: monospace; font-size: 10px;">0.0010</text>
<rect x="40" y="247" width="5" height="5" fill= "#EBE448" />
<rect x="172" y="247" width="5" height="5" fill= "#D82424" />
<line x1="172" y1="500"  x2="172" y2="505" style=" stroke: black;"/>
<text x="167" y="505" transform="rotate(90,167,505)" style="font-family: monospace; font-size: 10px;">0.0017</text>
<rect x="172" y="247" width="5" height="5" fill= "#EBE448" />
<rect x="304" y="247" width="5" height="5" fill= "#D82424" />
<line x1="304" y1="500"  x2="304" y2="505" style=" stroke: black;"/>
<text x="299" y="505" transform="rotate(90,299,505)" style="font-family: monospace; font-size: 10px;">0.0028</text>
<rect x="304" y="247" width="5" height="5" fill= "#EBE448" />
<rect x="435" y="316" width="5" height="5" fill= "#D82424" />
<line x1="435" y1="500"  x2="435" y2="505" style=" stroke: black;"/>
<text x="430" y="505" transform="rotate(90,430,505)" style="font-family: monospace; font-size: 10px;">0.0046</text>
<rect x="435" y="316" width="5" height="5" fill= "#EBE448" />
<rect x="568" y="316" width="5" height="5" fill= "#D82424" />
<line x1="568" y1="500"  x2="568" y2="505" style=" stroke: black;"/>
<text x="563" y="505" transform="rotate(90,563,505)" style="font-family: monospace; font-size: 10px;">0.0077</text>
<rect x="568" y="316" width="5" height="5" fill= "#EBE448" />
<rect x="700" y="477" width="5" height="5" fill= "#D82424" />
<line x1="700" y1="500"  x2="700" y2="505" style=" stroke: black;"/>
<text x="695" y="505" transform="rotate(90,695,505)" style="font-family: monospace; font-size: 10px;">0.0129</text>
<rect x="700" y="500" width="5" height="5" fill= "#EBE448" />
</g>
</svg>
